<svg width="46" height="43" viewBox="0 0 46 43" fill="none" xmlns="http://www.w3.org/2000/svg">
<g clip-path="url(#clip0_26_26)">
<path d="M-8.75336e-05 37.4003C0.130656 36.9728 0.217016 36.5248 0.402936 36.1239C1.26056 34.2666 2.71073 33.2522 4.75345 33.152C5.48153 33.117 6.21201 33.152 6.96888 33.152V29.7768C6.39553 29.7768 5.84617 29.7768 5.29561 29.7768C3.18573 29.7695 1.88669 28.4581 1.88549 26.3339C1.88549 24.4195 1.88549 22.5063 1.88549 20.5942C1.88549 18.6235 3.22171 17.2746 5.18526 17.2673C7.53383 17.2593 9.88281 17.2613 12.2322 17.2734C12.3698 17.2863 12.5081 17.2573 12.6292 17.1901C12.7503 17.1229 12.8485 17.0207 12.9111 16.8966C13.9115 15.2543 14.9394 13.6301 15.941 11.9877C16.1617 11.6254 16.4316 11.4503 16.8538 11.4697C17.2556 11.489 17.6598 11.4697 18.136 11.4697V10.9842C18.136 9.76454 18.136 8.54447 18.136 7.324C18.136 6.61514 18.3291 6.42313 19.05 6.42072C20.1296 6.42072 21.2091 6.43279 22.2886 6.41106C22.5496 6.40276 22.8054 6.33549 23.0371 6.21422C26.6539 4.28207 30.2668 2.34267 33.8756 0.396032C34.9671 -0.190859 35.9735 -0.122025 36.7999 0.578379C37.195 0.930547 37.4689 1.39981 37.5823 1.91865C37.6957 2.43749 37.6426 2.97916 37.4308 3.46574C37.3745 3.59857 37.4584 3.83526 37.5508 3.98017C40.0385 8.02199 42.507 12.0783 45.0511 16.0851C45.718 17.1345 46.0623 18.1622 45.9879 19.4096C45.9028 20.8503 45.9735 22.3006 45.9675 23.7461C45.9579 26.0683 44.3147 27.7311 42.0093 27.748C39.9893 27.7589 37.9694 27.742 35.9495 27.7565C35.4805 27.7565 35.2298 27.5621 35.1099 27.1213C34.9011 26.3533 34.6696 25.5913 34.4537 24.8269C34.2858 24.2231 34.5245 23.8801 35.1422 23.8704C36.1018 23.856 37.0614 23.8584 38.015 23.8704C38.1234 23.8843 38.2332 23.8615 38.3273 23.8055C38.4213 23.7495 38.4942 23.6636 38.5344 23.5613C39.4412 21.7632 40.3696 19.9772 41.2728 18.1779C41.3054 18.0974 41.3188 18.0104 41.3119 17.9237C41.305 17.8371 41.2781 17.7533 41.2332 17.6791C38.2185 14.1352 35.1918 10.5998 32.1531 7.07282C32.1147 7.02814 32.068 6.9907 32.0104 6.93636L26.5936 9.84666C26.554 9.8684 26.5156 9.89255 26.4736 9.91308C25.6208 10.3804 25.6004 10.4251 25.7851 11.4745C26.1737 11.4745 26.5744 11.4745 26.9738 11.4745C27.139 11.4613 27.3039 11.5037 27.4427 11.5951C27.5814 11.6864 27.6861 11.8216 27.7403 11.9793C28.9061 14.7479 30.072 17.5169 31.2379 20.2863C31.3059 20.4683 31.3377 20.662 31.3315 20.8563C31.3379 23.5371 31.3379 26.2184 31.3315 28.9001C31.3315 29.5787 31.1324 29.7756 30.4391 29.7768C29.212 29.7768 27.9849 29.7768 26.7579 29.7768H26.2481V33.1194C26.3956 33.1266 26.5516 33.1351 26.7087 33.1399C27.5147 33.1641 28.3352 33.1025 29.1257 33.2281C31.629 33.6266 33.3406 35.8196 33.2039 38.364C33.0743 40.8299 31.0796 42.82 28.5739 42.9842C28.4695 42.9903 28.364 42.9963 28.2596 42.9963C20.4942 42.9963 12.7292 42.9963 4.96456 42.9963C2.72993 42.9963 0.906721 41.6486 0.235013 39.58C0.137855 39.2818 0.0718838 38.9762 -0.00488281 38.6707L-8.75336e-05 37.4003ZM16.6031 34.4115C12.67 34.4115 8.73691 34.3862 4.80382 34.42C2.35809 34.4417 0.684814 36.8629 1.43809 39.2008C1.93467 40.7429 3.32007 41.7283 5.03652 41.7295C12.754 41.7344 20.4706 41.7344 28.1865 41.7295C28.2908 41.7295 28.3964 41.7295 28.5007 41.7199C29.0287 41.6925 29.5445 41.5496 30.0121 41.3013C30.4798 41.053 30.8881 40.7051 31.2087 40.2819C31.5293 39.8586 31.7546 39.3702 31.8688 38.8505C31.983 38.3307 31.9834 37.7922 31.8701 37.2723C31.5174 35.5817 30.0553 34.4127 28.22 34.4067C24.3493 34.3982 20.4762 34.4115 16.6031 34.4115ZM30.0469 28.4943C30.0607 28.4257 30.0703 28.3564 30.0756 28.2866C30.0756 25.8461 30.0756 23.4055 30.0756 20.965C30.0657 20.7863 30.0217 20.6113 29.9461 20.4493C28.9277 18.0257 27.895 15.6081 26.8874 13.1796C26.7519 12.8524 26.5995 12.7316 26.2373 12.7328C23.2906 12.7513 20.3431 12.7513 17.3948 12.7328C17.0637 12.7328 16.8886 12.8536 16.7218 13.1204C15.7515 14.7108 14.7451 16.2795 13.7915 17.8784C13.5 18.3614 13.1618 18.5498 12.598 18.5438C10.1295 18.516 7.65978 18.5281 5.19125 18.5341C4.12372 18.5341 3.29128 19.1258 3.19533 20.104C3.09937 21.0821 3.17493 22.0494 3.17493 23.0565H3.72549C8.96242 23.0565 14.2001 23.0565 19.4387 23.0565C19.6314 23.046 19.8237 23.0847 19.9976 23.1692C20.1715 23.2536 20.3213 23.3811 20.433 23.5396C21.6517 25.1022 22.898 26.6455 24.1226 28.2045C24.198 28.3133 24.3 28.4008 24.4187 28.4585C24.5373 28.5163 24.6688 28.5423 24.8003 28.5342C26.4016 28.5197 28.0029 28.5281 29.5982 28.5269C29.7542 28.51 29.8957 28.4943 30.0469 28.4943ZM3.14135 24.316C3.14135 25.0708 3.14135 25.7483 3.14135 26.4257C3.14135 27.7263 3.90781 28.5076 5.20685 28.5088C10.9236 28.5153 16.6411 28.5153 22.3594 28.5088C22.488 28.5007 22.6161 28.4858 22.7432 28.4641C21.7105 27.1636 20.7125 25.9282 19.7373 24.6675C19.6543 24.5466 19.5413 24.4495 19.4096 24.386C19.278 24.3225 19.1321 24.2946 18.9865 24.3052C13.8839 24.3148 8.78129 24.3173 3.67871 24.3124L3.14135 24.316ZM8.27152 33.1097H24.9347V29.8082H8.27152V33.1097ZM44.2067 17.1586L36.4221 4.56102L33.2039 6.2915C33.2242 6.34414 33.2495 6.39469 33.2794 6.44245C36.2869 9.95333 39.2996 13.461 42.3175 16.9654C42.4014 17.0649 42.5181 17.1305 42.6462 17.1502C43.1356 17.1695 43.6261 17.1586 44.2067 17.1586ZM44.7045 18.4242C44.1131 18.4242 43.5614 18.4471 43.0132 18.4157C42.6798 18.3976 42.5166 18.5172 42.3667 18.8143C41.4071 20.721 40.4199 22.6109 39.4664 24.5189C39.2409 24.9706 38.9482 25.1614 38.4468 25.1372C37.7271 25.1046 37.0074 25.1276 36.2877 25.1372C36.1678 25.1372 36.0358 25.1602 35.8631 25.1771C35.9483 25.5264 36.0528 25.8707 36.1762 26.2083C36.2114 26.2783 36.2622 26.3392 36.3246 26.3861C36.387 26.433 36.4594 26.4648 36.536 26.4788C38.4372 26.4945 40.3372 26.5102 42.2371 26.4788C42.8747 26.4673 43.4837 26.2107 43.9393 25.7617C44.3949 25.3126 44.6627 24.7051 44.6877 24.0637C44.7405 22.204 44.7045 20.3515 44.7045 18.4242ZM25.7803 8.81658C25.8623 8.7906 25.9424 8.75913 26.0202 8.72239C29.2188 7.00197 32.4202 5.27874 35.6244 3.55268C36.3237 3.17591 36.566 2.50932 36.2482 1.89707C35.9303 1.28482 35.2382 1.10489 34.5125 1.49373C32.5598 2.54032 30.609 3.5869 28.6603 4.63348L25.3533 6.41468C26.0526 7.12595 25.5416 8.02561 25.7803 8.81658ZM24.4609 11.454C24.4609 10.3092 24.4453 9.21388 24.4693 8.11859C24.4777 7.74062 24.3313 7.6742 23.9991 7.67661C22.5969 7.69231 21.1935 7.67661 19.7901 7.68507C19.663 7.68507 19.5346 7.70318 19.4147 7.71284V11.4564L24.4609 11.454Z" fill="white"/>
<path d="M5.28487 35.9562C5.69794 35.9628 6.09983 36.0923 6.43996 36.3284C6.78009 36.5645 7.04328 36.8966 7.1964 37.2829C7.34952 37.6692 7.38573 38.0924 7.30049 38.4994C7.21524 38.9064 7.01235 39.2789 6.71732 39.57C6.4223 39.8612 6.04834 40.058 5.64249 40.1357C5.23663 40.2134 4.81702 40.1685 4.43644 40.0067C4.05587 39.8449 3.73133 39.5733 3.50367 39.2263C3.27601 38.8792 3.1554 38.4721 3.157 38.0562C3.1627 37.4936 3.39005 36.9564 3.78907 36.5626C4.1881 36.1688 4.72613 35.9507 5.28487 35.9562ZM5.23689 37.2217C5.01811 37.2291 4.81057 37.3211 4.65736 37.4785C4.50414 37.6359 4.41701 37.8467 4.41405 38.067C4.41641 38.178 4.44047 38.2875 4.48485 38.3891C4.52923 38.4908 4.59306 38.5826 4.67269 38.6595C4.75233 38.7363 4.84622 38.7965 4.94899 38.8368C5.05176 38.8771 5.16142 38.8966 5.27168 38.8942C5.38194 38.8919 5.49066 38.8676 5.59162 38.823C5.69259 38.7783 5.78382 38.714 5.86012 38.6338C5.93642 38.5537 5.99628 38.4591 6.03629 38.3557C6.07631 38.2522 6.09568 38.1418 6.09332 38.0308C6.08158 37.8108 5.98598 37.6039 5.82642 37.4532C5.66687 37.3025 5.45568 37.2195 5.23689 37.2217Z" fill="white"/>
<path d="M27.9622 35.9573C28.3761 35.9571 28.7808 36.0802 29.1254 36.3111C29.4699 36.5421 29.7388 36.8706 29.8982 37.2551C30.0577 37.6397 30.1005 38.0631 30.0212 38.4722C29.942 38.8812 29.7443 39.2574 29.4531 39.5535C29.1618 39.8496 28.79 40.0523 28.3845 40.136C27.979 40.2197 27.558 40.1807 27.1745 40.0239C26.791 39.8672 26.4622 39.5996 26.2294 39.255C25.9967 38.9104 25.8705 38.5042 25.8667 38.0875C25.8648 37.5255 26.0843 36.9856 26.4771 36.5863C26.8699 36.187 27.404 35.9608 27.9622 35.9573ZM27.9898 37.2216C27.7671 37.2178 27.552 37.3032 27.3919 37.459C27.2317 37.6148 27.1396 37.8283 27.1358 38.0524C27.1319 38.2766 27.2167 38.4932 27.3715 38.6544C27.5263 38.8157 27.7383 38.9084 27.961 38.9123C28.1794 38.9052 28.3872 38.8155 28.5428 38.6611C28.6984 38.5066 28.7905 38.2988 28.8006 38.079C28.8 37.8588 28.7156 37.6472 28.5648 37.4878C28.414 37.3283 28.2082 37.233 27.9898 37.2216Z" fill="white"/>
<path d="M14.5269 38.0634C14.5293 37.6485 14.6538 37.2437 14.8847 36.9001C15.1156 36.5565 15.4426 36.2895 15.8242 36.133C16.2058 35.9764 16.6249 35.9373 17.0286 36.0206C17.4323 36.1039 17.8024 36.3058 18.0921 36.6008C18.3818 36.8959 18.5781 37.2708 18.6561 37.6781C18.7342 38.0855 18.6905 38.507 18.5307 38.8893C18.3708 39.2717 18.1019 39.5977 17.7579 39.8262C17.414 40.0547 17.0105 40.1754 16.5984 40.1731C16.3247 40.1719 16.0538 40.1164 15.8014 40.0097C15.549 39.903 15.3201 39.7472 15.1276 39.5512C14.9352 39.3552 14.783 39.1229 14.6799 38.8676C14.5769 38.6123 14.5249 38.339 14.5269 38.0634ZM16.608 37.2181C16.4407 37.2157 16.2766 37.2637 16.1366 37.3559C15.9966 37.448 15.8871 37.5802 15.8223 37.7355C15.7574 37.8907 15.74 38.0619 15.7725 38.2271C15.8049 38.3923 15.8856 38.544 16.0042 38.6628C16.1228 38.7815 16.274 38.8619 16.4383 38.8935C16.6026 38.9252 16.7725 38.9068 16.9263 38.8405C17.0801 38.7743 17.2108 38.6634 17.3015 38.5219C17.3923 38.3804 17.439 38.2149 17.4356 38.0465C17.4337 37.8269 17.3457 37.6169 17.1906 37.4624C17.0356 37.3079 16.8262 37.2214 16.608 37.2217V37.2181Z" fill="white"/>
<path d="M13.0215 38.0562C13.0224 38.4735 12.9001 38.8817 12.6701 39.2288C12.4401 39.576 12.1127 39.8465 11.7297 40.006C11.3466 40.1655 10.9251 40.2067 10.5187 40.1244C10.1124 40.0422 9.73942 39.8402 9.44733 39.5441C9.15524 39.248 8.95717 38.8711 8.87829 38.4614C8.79941 38.0517 8.84328 37.6277 9.00432 37.2431C9.16537 36.8586 9.43632 36.5309 9.78275 36.3018C10.1292 36.0726 10.5355 35.9523 10.95 35.9561C11.4995 35.9637 12.0242 36.1878 12.4115 36.5805C12.7988 36.9731 13.0177 37.5028 13.0215 38.0562ZM11.7644 38.0767C11.7778 37.9584 11.7662 37.8385 11.7304 37.725C11.6946 37.6115 11.6354 37.5069 11.5566 37.4181C11.4778 37.3293 11.3813 37.2582 11.2734 37.2095C11.1654 37.1608 11.0485 37.1357 10.9302 37.1357C10.8119 37.1357 10.6949 37.1608 10.587 37.2095C10.479 37.2582 10.3825 37.3293 10.3038 37.4181C10.225 37.5069 10.1658 37.6115 10.1299 37.725C10.0941 37.8385 10.0825 37.9584 10.0959 38.0767C10.1193 38.283 10.2172 38.4734 10.3711 38.6116C10.5249 38.7499 10.7239 38.8263 10.9302 38.8263C11.1364 38.8263 11.3354 38.7499 11.4893 38.6116C11.6431 38.4734 11.7411 38.283 11.7644 38.0767Z" fill="white"/>
<path d="M22.2852 35.9549C22.699 35.953 23.1041 36.0745 23.4494 36.3041C23.7948 36.5337 24.0648 36.8611 24.2256 37.245C24.3863 37.6289 24.4306 38.0522 24.3527 38.4613C24.2749 38.8705 24.0784 39.2474 23.7882 39.5443C23.4979 39.8413 23.1268 40.045 22.7216 40.1299C22.3165 40.2148 21.8954 40.177 21.5116 40.0213C21.1277 39.8657 20.7983 39.599 20.5647 39.2551C20.3312 38.9111 20.204 38.5053 20.1993 38.0887C20.1969 37.8106 20.249 37.5348 20.3526 37.2771C20.4562 37.0193 20.6092 36.7846 20.8029 36.5865C20.9966 36.3883 21.2273 36.2305 21.4816 36.1221C21.7359 36.0137 22.009 35.9569 22.2852 35.9549ZM22.266 38.9074C22.4854 38.9089 22.6968 38.8249 22.856 38.6729C23.0152 38.521 23.1098 38.3129 23.12 38.0923C23.1245 37.9266 23.08 37.7633 22.9922 37.623C22.9045 37.4827 22.7774 37.3718 22.627 37.3043C22.4766 37.2367 22.3097 37.2156 22.1474 37.2436C21.9851 37.2716 21.8347 37.3474 21.7152 37.4614C21.5957 37.5755 21.5125 37.7227 21.4761 37.8844C21.4396 38.046 21.4517 38.215 21.5107 38.3697C21.5696 38.5245 21.6729 38.6582 21.8073 38.7539C21.9418 38.8497 22.1014 38.9031 22.266 38.9074Z" fill="white"/>
<path d="M21.7286 14.3656C22.8201 14.3656 23.9116 14.3728 25.0043 14.3656C25.4313 14.3656 25.6976 14.5274 25.8668 14.9319C26.6212 16.7494 27.3961 18.5547 28.1541 20.3733C28.2317 20.5673 28.2723 20.7741 28.2741 20.9832C28.2861 22.07 28.2825 23.1508 28.2741 24.2352C28.2741 24.839 28.0714 25.0383 27.4597 25.0407C26.3681 25.0407 25.2766 25.0322 24.1839 25.0467C24.0282 25.0558 23.8727 25.0249 23.7321 24.9569C23.5916 24.8889 23.4705 24.786 23.3802 24.6579C22.6138 23.6749 21.8209 22.71 21.0628 21.7234C20.991 21.621 20.894 21.5392 20.7813 21.4858C20.6686 21.4325 20.5441 21.4095 20.4199 21.4191C18.5655 21.4312 16.7111 21.4372 14.8567 21.4119C14.5705 21.4065 14.296 21.2967 14.0843 21.1027C13.8348 20.8359 14.0315 20.5158 14.2042 20.2381C15.3149 18.4533 16.4281 16.6697 17.5268 14.8776C17.6135 14.7113 17.7465 14.5741 17.9095 14.4828C18.0724 14.3914 18.2583 14.3498 18.4444 14.3632C19.5443 14.3776 20.6382 14.3656 21.7286 14.3656ZM27.0266 23.7703C27.0266 22.9346 27.0434 22.1678 27.0182 21.4022C27.0103 21.0904 26.9486 20.7823 26.8359 20.4917C26.2218 18.9906 25.5765 17.5029 24.9575 16.0031C24.8448 15.7301 24.7105 15.619 24.3998 15.6227C22.5754 15.6396 20.751 15.6372 18.9254 15.6227C18.8088 15.6123 18.6919 15.6373 18.5897 15.6946C18.4874 15.7519 18.4047 15.8387 18.352 15.9439C17.564 17.2396 16.7579 18.5245 15.9603 19.8154C15.9039 19.9084 15.8631 20.0111 15.7923 20.1548C17.4716 20.1548 19.0837 20.1753 20.697 20.1427C20.9333 20.126 21.1699 20.1726 21.3826 20.2775C21.5953 20.3825 21.7768 20.5422 21.9085 20.7405C22.6138 21.6751 23.3479 22.5832 24.0903 23.4938C24.1851 23.6145 24.3374 23.7522 24.467 23.7558C25.3006 23.7848 26.1366 23.7715 27.0266 23.7715V23.7703Z" fill="white"/>
</g>
<defs>
<clipPath id="clip0_26_26">
<rect width="46" height="43" fill="white"/>
</clipPath>
</defs>
</svg>
