<svg width="46" height="45" viewBox="0 0 46 45" fill="none" xmlns="http://www.w3.org/2000/svg">
<g clip-path="url(#clip0_25_10)">
<path d="M46 38.6833C45.7001 39.8133 44.9193 40.4432 43.8259 40.823C42.7559 41.1959 41.7201 41.6623 40.6673 42.0837C39.6144 42.5051 38.639 42.3938 37.796 41.6181C37.5843 41.4229 37.4357 41.5086 37.2412 41.5908C34.9854 42.5696 32.7283 43.5482 30.4701 44.5264C27.4574 45.8375 24.4357 44.333 23.7647 41.1773C23.5215 40.0288 23.3063 38.8724 23.0802 37.7195L19.3515 18.7007C19.0966 17.4038 18.8552 16.1043 18.5742 14.8136C18.5108 14.551 18.3672 14.3137 18.1626 14.1333C16.8195 13.006 15.4622 11.8958 14.0908 10.8027C13.792 10.5631 13.4493 10.3817 13.0811 10.2683C9.45992 9.20223 5.83178 8.14975 2.19674 7.11082C0.428759 6.60284 -0.343101 5.24499 0.168471 3.50814C0.313476 3.01518 0.462985 2.5231 0.613394 2.03102C1.10245 0.431988 2.51467 -0.332192 4.14846 0.136034C7.88077 1.20677 11.6032 2.30665 15.3436 3.34912C16.4097 3.63539 17.3996 4.14575 18.2446 4.84479C20.6052 6.79367 23.0073 8.69307 25.3931 10.6119C25.5075 10.7003 25.6228 10.7886 25.7678 10.907C26.1577 10.4653 26.5405 10.0359 26.9197 9.60391C28.0905 8.26725 29.6766 8.12943 31.0339 9.27526C33.6548 11.4909 36.2697 13.7137 38.8786 15.9435C40.1737 17.0504 40.2953 18.6186 39.1623 19.8792C38.829 20.2503 38.7849 20.5312 38.9822 20.9915C41.229 26.3181 43.4608 31.6508 45.6776 36.9898C45.7893 37.2548 45.8947 37.5313 46.0028 37.8017L46 38.6833ZM19.5758 13.0962C19.7559 13.5273 19.9477 13.8427 20.0171 14.1819C20.4332 16.2094 20.8214 18.2458 21.2195 20.2733C22.5602 27.0864 23.8971 33.8995 25.2301 40.7126C25.6804 43.0317 27.6618 44.0856 29.8693 43.1341C32.3912 42.0487 34.9076 40.9591 37.4186 39.8654C37.9833 39.6216 38.3193 39.7143 38.6066 40.179C38.9993 40.8107 39.4172 40.952 40.1143 40.6746C41.2635 40.2176 42.4118 39.7567 43.5593 39.292C44.4599 38.9254 44.6473 38.4855 44.2753 37.5949C43.3416 35.3569 42.4061 33.1188 41.4689 30.8808C40.0566 27.5025 38.6429 24.1248 37.2277 20.7477C37.0385 20.2998 37.0611 19.934 37.4132 19.5824C37.633 19.3633 37.8311 19.1221 38.0302 18.8836C38.5552 18.2581 38.5201 17.6362 37.8951 17.1026C35.264 14.8551 32.6274 12.6138 29.9855 10.3787C29.3479 9.8389 28.6976 9.90162 28.1401 10.5271C27.6474 11.0793 27.1629 11.6394 26.6711 12.1933C26.0785 12.8603 25.7786 12.8824 25.0968 12.324C24.2042 11.5934 23.309 10.8663 22.4002 10.1251L19.5758 13.0962ZM21.1897 9.16836C21.0654 9.06235 20.9574 8.9634 20.843 8.87153C19.5668 7.85203 18.277 6.84667 17.0161 5.80863C16.4992 5.3647 15.8816 5.04846 15.2148 4.88631C14.5618 4.73436 13.9242 4.5188 13.2793 4.33239C10.1264 3.42244 6.97411 2.51279 3.82242 1.60343C2.88304 1.3331 2.33634 1.63436 2.05894 2.55579C1.91484 3.03373 1.76713 3.51079 1.63023 3.9905C1.38706 4.83949 1.69148 5.37927 2.55971 5.63106C5.49764 6.4827 8.43587 7.33169 11.3744 8.17803C14.3466 9.02878 14.3529 9.02172 16.7387 10.9838C17.2494 11.4044 17.7654 11.8187 18.2914 12.2463L21.0438 9.34682C21.0862 9.29558 21.1294 9.23904 21.1897 9.16836Z" fill="white"/>
<path d="M5.34888 25.8513C2.22992 25.8319 -0.175727 23.466 0.00980729 20.4482C0.0638465 19.5648 0.397089 18.6716 0.752847 17.8456C1.55263 15.985 2.68025 14.303 3.95467 12.7216C4.80219 11.6703 5.88658 11.6615 6.72869 12.7216C8.23818 14.6122 9.56124 16.6185 10.3718 18.9057C11.4868 22.049 9.65131 25.1499 6.3297 25.7718C6.00436 25.8148 5.67699 25.8413 5.34888 25.8513ZM5.39752 13.4107C4.10058 14.7571 2.22362 17.8756 1.72285 19.4958C1.60336 19.8436 1.53483 20.2061 1.5193 20.5728C1.5094 22.1055 2.18219 23.2947 3.60252 23.9466C5.0877 24.6287 6.57467 24.5156 7.8563 23.4634C9.07399 22.4651 9.44236 21.1382 9.01004 19.6451C8.60295 18.2316 7.8527 16.9745 7.04932 15.7509C6.53234 14.9673 5.96403 14.2146 5.39752 13.4107Z" fill="white"/>
<path d="M29.8631 23.527C31.686 23.5358 33.0631 24.5067 33.599 26.0395C34.4816 28.5635 35.3399 31.0963 36.2109 33.6256C36.5441 34.5974 36.8801 35.5692 37.2088 36.541C37.4133 37.1479 37.2863 37.4563 36.7044 37.7098C34.3267 38.7443 31.9499 39.7824 29.5632 40.8019C28.4211 41.2878 27.3034 40.6958 27.1053 39.4829C26.673 36.8325 26.2767 34.1743 25.8687 31.5186C25.6786 30.2818 25.4751 29.0529 25.3148 27.8161C25.0653 25.9008 26.2497 24.2426 28.1599 23.8212C28.7976 23.6807 29.4515 23.5968 29.8631 23.527ZM26.8225 26.8841C26.8225 27.2101 26.7945 27.4292 26.8225 27.6394C27.4007 31.4553 27.9825 35.2703 28.5679 39.0844C28.6238 39.4528 28.7823 39.5111 29.1155 39.3618C30.0396 38.9484 30.9664 38.5385 31.9076 38.1612C32.2417 38.0261 32.2678 37.8768 32.1579 37.5676C31.2699 35.0153 30.399 32.4577 29.5244 29.901C29.2966 29.2358 28.9624 28.6324 28.4202 28.1668C27.9402 27.7543 27.4295 27.3717 26.8225 26.8867V26.8841ZM35.593 36.5516C34.4222 33.145 33.2847 29.795 32.1201 26.4529C31.8499 25.6897 31.2762 25.187 30.4512 25.0871C29.5623 24.9794 28.7021 25.1817 27.8825 25.5289C27.8224 25.5674 27.7671 25.6128 27.7177 25.664C28.096 25.9609 28.4445 26.2559 28.8147 26.5219C29.9315 27.3214 30.6439 28.3833 31.0663 29.6687C31.8607 32.0655 32.6938 34.4508 33.5134 36.8396C33.572 37.0163 33.6458 37.1806 33.717 37.3644L35.593 36.5516Z" fill="white"/>
<path d="M22.6128 18.7352C22.6128 18.3244 22.8668 18.0223 23.2351 17.9631C23.6531 17.8951 24.0151 18.1274 24.1286 18.5815C24.3583 19.4897 24.5681 20.4032 24.7861 21.3149C24.923 21.8847 25.0689 22.4519 25.1941 23.0243C25.2186 23.1206 25.2235 23.2206 25.2085 23.3187C25.1935 23.4168 25.1589 23.511 25.1066 23.596C25.0544 23.6809 24.9856 23.7549 24.9042 23.8138C24.8228 23.8726 24.7303 23.915 24.6321 23.9387C24.5375 23.9635 24.4388 23.9696 24.3418 23.9567C24.2448 23.9437 24.1514 23.912 24.067 23.8634C23.9826 23.8147 23.9089 23.7501 23.8502 23.6732C23.7915 23.5964 23.749 23.5088 23.7251 23.4157C23.3459 21.9138 22.9911 20.3987 22.629 18.8889C22.6197 18.8382 22.6142 18.7868 22.6128 18.7352Z" fill="white"/>
<path d="M23.3 16.0778C23.2766 16.5884 23.0919 16.849 22.7073 16.94C22.3228 17.031 21.9868 16.8861 21.8607 16.538C21.6598 15.9707 21.5059 15.3884 21.4005 14.7968C21.333 14.4266 21.5671 14.1412 21.9355 14.0308C22.3039 13.9204 22.6686 14.0308 22.8028 14.3842C23.0244 14.9726 23.1613 15.591 23.3 16.0778Z" fill="white"/>
</g>
<defs>
<clipPath id="clip0_25_10">
<rect width="46" height="45" fill="white"/>
</clipPath>
</defs>
</svg>
