<svg width="21" height="21" fill="none" xmlns="http://www.w3.org/2000/svg"><g clip-path="url(#a)"><path d="M.488 21a.446.446 0 0 1-.431-.565l1.365-4.985a10.42 10.42 0 0 1-1.297-5.04C.127 4.67 4.798 0 10.537 0a10.35 10.35 0 0 1 7.366 3.053 10.348 10.348 0 0 1 3.047 7.365c-.003 5.74-4.674 10.41-10.413 10.41h-.004c-1.677-.001-3.338-.41-4.818-1.184L.6 20.985A.448.448 0 0 1 .488 21Z" fill="#E5E5E5"/><path d="m.488 20.553 1.414-5.163a9.945 9.945 0 0 1-1.33-4.98C.573 4.915 5.043.447 10.536.447a9.903 9.903 0 0 1 7.05 2.922 9.903 9.903 0 0 1 2.916 7.049c-.003 5.493-4.474 9.963-9.966 9.963h-.004a9.958 9.958 0 0 1-4.762-1.213L.488 20.553Zm5.527-3.189.303.18a8.272 8.272 0 0 0 4.216 1.154h.003c4.565 0 8.281-3.715 8.283-8.281a8.23 8.23 0 0 0-2.424-5.859A8.23 8.23 0 0 0 10.54 2.13c-4.569 0-8.284 3.714-8.286 8.28 0 1.565.437 3.088 1.266 4.407l.197.313-.837 3.056 3.135-.822Z" fill="#fff"/><path d="M.834 20.205 2.2 15.221a9.6 9.6 0 0 1-1.284-4.808C.917 5.11 5.233.795 10.535.795a9.559 9.559 0 0 1 6.806 2.82 9.559 9.559 0 0 1 2.815 6.805c-.002 5.304-4.318 9.619-9.62 9.619h-.004a9.62 9.62 0 0 1-4.597-1.171l-5.1 1.337Z" fill="#64B161"/><path d="m.488 20.553 1.414-5.163a9.945 9.945 0 0 1-1.33-4.98C.573 4.915 5.043.447 10.536.447a9.903 9.903 0 0 1 7.05 2.922 9.903 9.903 0 0 1 2.916 7.049c-.003 5.493-4.474 9.963-9.966 9.963h-.004a9.958 9.958 0 0 1-4.762-1.213L.488 20.553Zm5.527-3.189.303.18a8.272 8.272 0 0 0 4.216 1.154h.003c4.565 0 8.281-3.715 8.283-8.281a8.23 8.23 0 0 0-2.424-5.859A8.23 8.23 0 0 0 10.54 2.13c-4.569 0-8.284 3.714-8.286 8.28 0 1.565.437 3.088 1.266 4.407l.197.313-.837 3.056 3.135-.822Z" fill="#fff"/><path fill-rule="evenodd" clip-rule="evenodd" d="M8.047 6.244c-.187-.414-.383-.423-.56-.43-.146-.006-.312-.006-.478-.006a.915.915 0 0 0-.664.312c-.228.25-.872.852-.872 2.077s.893 2.409 1.017 2.575c.125.166 1.723 2.76 4.254 3.76 2.103.829 2.531.664 2.988.622.457-.041 1.473-.602 1.68-1.184.208-.581.208-1.08.146-1.184-.062-.103-.228-.166-.477-.29-.25-.125-1.473-.727-1.702-.81-.228-.083-.394-.125-.56.125-.166.248-.643.81-.788.975-.146.167-.291.188-.54.063-.249-.125-1.051-.388-2.002-1.236-.74-.66-1.24-1.475-1.386-1.724-.145-.25-.002-.372.11-.508.201-.245.539-.686.622-.852.083-.166.041-.311-.02-.436-.063-.125-.547-1.356-.768-1.849Z" fill="#fff"/></g><defs><clipPath id="a"><path fill="#fff" d="M0 0h21v21H0z"/></clipPath></defs></svg>