<svg width="46" height="46" viewBox="0 0 46 46" fill="none" xmlns="http://www.w3.org/2000/svg">
<g clip-path="url(#clip0_26_34)">
<path d="M21.5628 45.9999C20.7057 45.8799 19.8449 45.7839 18.9913 45.6399C10.0268 44.1832 2.4238 36.9173 0.540149 28.0146C-1.58841 17.9912 2.72273 8.1754 11.5431 3.05029C15.6022 0.692336 20.0021 -0.285648 24.6843 0.0719458C34.662 0.832732 42.8677 7.72901 45.3 17.4128C45.6049 18.626 45.7154 19.886 45.9171 21.1244C45.9411 21.2708 45.9711 21.416 45.9987 21.5612V24.4411C45.9735 24.5611 45.9399 24.6715 45.9231 24.7891C45.767 25.8535 45.6673 26.9287 45.45 27.9798C43.6084 36.8957 35.979 44.194 27.0013 45.6495C26.1477 45.7875 25.2881 45.8895 24.4309 46.0095L21.5628 45.9999ZM23.0035 44.6511C34.9645 44.6511 44.6613 34.9529 44.6601 22.9975C44.6589 11.0422 34.9537 1.34512 22.9927 1.34752C11.0317 1.34992 1.33611 11.0434 1.33731 22.9999C1.33851 34.9565 11.0377 44.6524 22.9951 44.6511H23.0035Z" fill="white"/>
<path d="M35.5888 36.5226C35.039 35.9802 34.5239 35.4798 34.0185 34.9699C33.6583 34.6099 33.6259 34.2403 33.9057 33.9403C34.1854 33.6403 34.5936 33.6511 34.9669 34.0207C35.4772 34.5259 35.9766 35.0419 36.5276 35.6022C39.6142 32.2243 41.235 28.2884 41.4823 23.6793H40.4414C40.0224 23.6793 39.601 23.6901 39.1832 23.6721C38.7138 23.6504 38.4461 23.3901 38.4485 22.9953C38.4509 22.6005 38.7198 22.3449 39.194 22.3353C39.7943 22.3233 40.3946 22.3353 40.9949 22.3353C41.1413 22.3353 41.2878 22.3233 41.4751 22.3149C41.2566 17.7382 39.607 13.807 36.5132 10.3895C35.9886 10.9307 35.4976 11.4491 34.9933 11.9566C34.608 12.3442 34.2394 12.3814 33.9321 12.0874C33.6247 11.7935 33.6547 11.3975 34.0521 10.9955C34.5491 10.4975 35.051 10.0043 35.5876 9.47269C32.2069 6.40075 28.2775 4.75557 23.665 4.52158V6.20155C23.665 6.41155 23.6722 6.62154 23.665 6.83034C23.6374 7.29113 23.3721 7.56233 22.9759 7.55033C22.5977 7.54073 22.3408 7.27793 22.3276 6.83034C22.3108 6.24715 22.3216 5.66276 22.3204 5.07957V4.50358C21.6001 4.57437 20.9206 4.61638 20.2495 4.71238C18.5294 4.95936 16.8549 5.45704 15.2792 6.18955C15.2384 6.20875 15.1976 6.22795 15.1592 6.24355C14.7282 6.40434 14.356 6.28075 14.2059 5.92676C14.0559 5.57276 14.1999 5.18397 14.6189 5.01837C15.619 4.62118 16.6094 4.17839 17.6419 3.89399C27.2642 1.21804 37.2264 5.98555 41.2386 15.1618C45.1295 24.0584 41.7596 34.7743 33.4771 39.849C33.1973 40.0206 32.9236 40.1538 32.6007 39.969C32.1409 39.6966 32.1637 39.1398 32.6379 38.7906C33.5063 38.1506 34.3703 37.5082 35.2298 36.8634C35.3551 36.7559 35.4749 36.6422 35.5888 36.5226Z" fill="white"/>
<path d="M10.3859 9.47741C10.9273 10.0066 11.4447 10.5034 11.9466 11.011C12.3271 11.3914 12.3608 11.7706 12.0666 12.0718C11.7725 12.373 11.3859 12.3418 11.0066 11.9626C10.4975 11.455 9.9993 10.9378 9.46025 10.3882C6.37726 13.7805 4.74212 17.7165 4.50802 22.3316H6.13475C6.38927 22.3316 6.64378 22.322 6.8971 22.34C7.27887 22.3676 7.50457 22.58 7.53579 22.964C7.54537 23.0505 7.53668 23.138 7.51028 23.2209C7.48388 23.3038 7.44035 23.3803 7.38253 23.4453C7.3247 23.5103 7.25386 23.5625 7.17458 23.5985C7.0953 23.6344 7.00936 23.6533 6.92231 23.654C6.31003 23.6888 5.69535 23.6732 5.08188 23.6792C4.9078 23.6792 4.73252 23.6792 4.51042 23.6792C4.73732 28.2799 6.38686 32.2086 9.47226 35.607C10.0017 35.0646 10.4975 34.5462 11.0042 34.0386C11.3859 33.6558 11.7605 33.6222 12.0642 33.9186C12.368 34.215 12.3344 34.599 11.955 34.9794C11.4472 35.4882 10.9285 35.985 10.3859 36.5153C13.7822 39.5957 17.7092 41.2469 22.3193 41.4737C22.3193 40.7777 22.3193 40.1249 22.3193 39.4709C22.3193 38.7617 22.5162 38.4569 22.976 38.4461C23.4358 38.4353 23.6663 38.7545 23.6675 39.4841C23.6675 40.1249 23.6675 40.7669 23.6675 41.5121C24.5883 41.3921 25.4683 41.3681 26.3195 41.1665C27.6089 40.8593 28.8658 40.4165 30.148 40.0721C30.2779 40.0421 30.4125 40.039 30.5436 40.0629C30.6747 40.0869 30.7995 40.1373 30.9103 40.2113C31.0556 40.3313 31.1072 40.6781 31.0532 40.8893C31.01 41.0621 30.7759 41.2373 30.5862 41.3165C27.7743 42.4958 24.725 42.9997 21.683 42.7876C17.8677 42.5308 14.3921 41.3141 11.3259 39.0353C6.73862 35.6262 3.93176 31.0926 3.32788 25.3903C2.49471 17.5113 5.42643 11.2438 11.8385 6.59866C12.0138 6.47146 12.2671 6.31066 12.4388 6.35866C12.6986 6.43065 12.9222 6.59715 13.0655 6.82546C13.2276 7.11945 13.0367 7.39425 12.775 7.59224C12.1543 8.06144 11.5336 8.52942 10.9189 9.00582C10.7376 9.13541 10.5828 9.29741 10.3859 9.47741Z" fill="white"/>
<path d="M20.9758 22.754C20.9699 22.6782 20.9768 22.6019 20.9962 22.5284C21.2795 21.9284 20.9169 21.5876 20.528 21.2084C19.5171 20.2316 18.5339 19.226 17.5386 18.2313C17.2589 17.9517 17.1941 17.6313 17.4258 17.3037C17.6239 17.0205 17.9228 16.9725 18.2265 17.0973C18.3716 17.1733 18.5008 17.2764 18.6071 17.4009C19.6796 18.4665 20.7481 19.5352 21.8125 20.6072C22.0046 20.8016 22.1595 20.888 22.4656 20.8088C22.8122 20.723 23.1744 20.723 23.5209 20.8088C23.8247 20.888 23.9807 20.8088 24.1752 20.6108C26.2658 18.5125 28.3595 16.4173 30.4565 14.3253C30.5554 14.2133 30.6665 14.1127 30.7878 14.0253C31.0915 13.8357 31.3965 13.8597 31.6426 14.1225C31.7517 14.2285 31.8184 14.3705 31.8301 14.5221C31.8418 14.6737 31.7978 14.8243 31.7062 14.9457C31.6085 15.0769 31.4975 15.1975 31.3749 15.3057C29.2939 17.3897 27.209 19.4724 25.12 21.554C24.922 21.7508 24.8511 21.9068 24.9316 22.2092C25.1477 23.0288 24.9316 23.7596 24.2581 24.2996C23.973 24.5477 23.6203 24.7051 23.2451 24.7517C22.87 24.7983 22.4895 24.732 22.1523 24.5612C21.3924 24.2144 21.0118 23.588 20.9758 22.754ZM23.6554 22.754C23.6591 22.6686 23.6457 22.5833 23.6161 22.503C23.5865 22.4228 23.5412 22.3493 23.4829 22.2868C23.4246 22.2242 23.3544 22.1739 23.2764 22.1388C23.1984 22.1036 23.1142 22.0843 23.0287 22.082C22.9396 22.0748 22.85 22.0863 22.7655 22.1156C22.6811 22.1449 22.6037 22.1915 22.5382 22.2523C22.4727 22.3131 22.4206 22.3869 22.3852 22.4689C22.3497 22.5509 22.3318 22.6394 22.3324 22.7288C22.33 22.818 22.3456 22.9069 22.3783 22.9899C22.411 23.073 22.4602 23.1487 22.5229 23.2123C22.5855 23.2759 22.6604 23.3263 22.743 23.3603C22.8256 23.3943 22.9142 23.4114 23.0035 23.4104C23.1766 23.4069 23.3415 23.3362 23.4632 23.2132C23.5849 23.0902 23.6539 22.9246 23.6554 22.7516V22.754Z" fill="white"/>
<path d="M22.9941 29.4295C23.7408 29.4295 24.4888 29.4295 25.2355 29.4295C25.7397 29.4295 26.0315 29.6695 26.0459 30.0727C26.0603 30.4759 25.7565 30.7675 25.2367 30.7711C23.7416 30.7807 22.247 30.7807 20.7527 30.7711C20.2304 30.7711 19.9291 30.4891 19.9423 30.0751C19.9555 29.6611 20.2473 29.4343 20.7515 29.4295C21.4982 29.4235 22.2462 29.4295 22.9941 29.4295Z" fill="white"/>
</g>
<defs>
<clipPath id="clip0_26_34">
<rect width="46" height="46" fill="white"/>
</clipPath>
</defs>
</svg>
