<svg width="46" height="43" viewBox="0 0 46 43" fill="none" xmlns="http://www.w3.org/2000/svg">
<g clip-path="url(#clip0_25_16)">
<path d="M46 36.4236C45.64 35.6223 45.0125 35.3424 44.157 35.3952C43.4442 35.4397 42.7267 35.4036 42.0212 35.4036C41.492 32.3713 39.8686 30.2845 36.9205 29.476C34.0107 28.6783 31.5666 29.6178 29.5388 31.9424C29.5292 31.7238 29.5172 31.5724 29.516 31.421C29.516 29.5925 29.516 27.7644 29.516 25.9367C29.5216 25.7721 29.5128 25.6072 29.4896 25.4442C29.4733 25.2925 29.4 25.1528 29.2845 25.0533C29.1691 24.9538 29.0202 24.902 28.868 24.9083C28.789 24.8988 28.7088 24.9052 28.6323 24.927C28.5557 24.9488 28.4842 24.9857 28.422 25.0354C28.3598 25.0852 28.3081 25.1468 28.2699 25.2168C28.2318 25.2868 28.2079 25.3636 28.1997 25.4429C28.1732 25.6206 28.1636 25.8005 28.1709 25.98C28.1709 28.9162 28.1709 31.8531 28.1709 34.7909V35.364H23.9209V17.4045C24.9072 17.4585 25.9103 17.4237 26.8798 17.5919C27.6802 17.7301 28.1505 18.5314 28.1661 19.436C28.1817 20.3202 28.1661 21.2045 28.1661 22.0887C28.1613 22.2381 28.1697 22.3877 28.1913 22.5356C28.2077 22.6954 28.2857 22.8425 28.4087 22.9457C28.5317 23.0489 28.69 23.1 28.85 23.0882C29.1992 23.0882 29.4584 22.8816 29.4872 22.5152C29.5208 22.0683 29.5112 21.6177 29.5112 21.1684C29.5112 20.4944 29.5316 19.8181 29.4884 19.1465C29.4374 18.3382 29.0864 17.5783 28.5042 17.016C27.922 16.4538 27.1508 16.13 26.3423 16.1082C25.5504 16.0842 24.7584 16.1082 23.8909 16.1082V15.57C23.8909 12.8877 23.8909 10.2046 23.8909 7.52068C23.8909 6.25562 23.3246 5.61048 22.0119 5.44108V4.97495C22.0119 4.01384 22.0203 3.05273 22.0119 2.09763C21.9939 0.621126 20.7616 -0.317156 19.3506 0.0985236C17.3731 0.682397 15.3969 1.27468 13.4363 1.91021C11.8489 2.42441 10.7522 3.50205 10.1498 5.06145C10.0298 5.369 9.87866 5.48193 9.53549 5.48433C8.86596 5.48433 8.17722 5.48433 7.53168 5.6297C6.86104 5.77418 6.2357 6.08023 5.70986 6.52132C5.18402 6.96241 4.77353 7.52523 4.51397 8.16102C3.12691 11.3903 1.75423 14.6281 0.443962 17.8922C0.171749 18.6052 0.0330505 19.3623 0.0348015 20.1256C-0.00359726 24.3809 0.0192032 28.6362 0.0144043 32.8927C0.00815201 33.8332 0.336044 34.7453 0.939514 35.4661C0.062397 35.8518 -0.0395927 36.5954 0.0132027 37.4123C0.028801 37.6526 0.0132027 37.8929 0.0132027 38.1332C0.0252037 39.0246 0.575951 39.5941 1.47107 39.6025C2.81734 39.6161 4.16401 39.6161 5.51108 39.6025C5.63433 39.5915 5.75813 39.6161 5.86784 39.6734C5.97756 39.7307 6.06861 39.8182 6.13022 39.9256C6.76141 40.874 7.61672 41.6516 8.6202 42.1894C9.62368 42.7272 10.7443 43.0087 11.8825 43.0087C13.0207 43.0087 14.1413 42.7272 15.1447 42.1894C16.1482 41.6516 17.0035 40.874 17.6347 39.9256C17.6972 39.8184 17.7891 39.7312 17.8994 39.6744C18.0097 39.6175 18.1339 39.5934 18.2575 39.6049C21.7443 39.6137 25.2312 39.6137 28.7181 39.6049C28.8414 39.5935 28.9654 39.6177 29.0755 39.6745C29.1857 39.7313 29.2773 39.8185 29.3396 39.9256C29.9713 40.8735 30.8269 41.6506 31.8304 42.188C32.8339 42.7255 33.9544 43.0067 35.0924 43.0067C36.2305 43.0067 37.351 42.7255 38.3545 42.188C39.358 41.6506 40.2136 40.8735 40.8453 39.9256C40.9059 39.8175 40.9965 39.7292 41.1062 39.6717C41.2159 39.6141 41.3399 39.5896 41.4632 39.6013C42.3607 39.6181 43.2631 39.5712 44.157 39.6181C45.0125 39.6637 45.64 39.391 45.9988 38.5885L46 36.4236ZM18.7962 35.3712C18.7662 35.2378 18.7338 35.1225 18.7134 35.0108C18.1639 31.8211 15.4833 29.3739 12.3852 29.2333C8.94754 29.0771 6.06782 31.1255 5.19431 34.338C5.09711 34.6984 5.07432 35.215 4.83434 35.358C4.53557 35.5358 4.04962 35.4265 3.64766 35.3928C2.61216 35.3063 1.85743 34.7825 1.52386 33.7926C1.18189 32.781 1.43507 31.7274 1.35947 30.7074C1.45546 30.6894 1.46986 30.6846 1.47946 30.6846C2.24259 30.6846 3.00572 30.6846 3.76884 30.6738C4.83075 30.6594 5.62387 29.9073 5.65266 28.8429C5.68026 27.8097 5.67666 26.7741 5.65266 25.7409C5.62867 24.7077 4.88234 23.9388 3.83124 23.898C3.1737 23.8715 2.51136 23.892 1.85623 23.8872C1.69785 23.8872 1.54066 23.8739 1.39787 23.8667V22.4755C2.52696 22.4755 3.62006 22.4395 4.71075 22.4851C5.74146 22.5296 6.58378 22.2244 7.26051 21.4339C7.56168 21.0819 7.92765 20.7876 8.23602 20.4404C8.59599 20.0295 9.03154 19.8721 9.58469 19.8769C11.8441 19.8974 14.1047 19.8937 16.3652 19.8769C17.6011 19.8697 18.6606 18.9603 18.6954 17.7733C18.7506 15.9015 18.7458 14.0262 18.6954 12.1544C18.6666 11.0443 17.7019 10.1121 16.5932 10.0664C15.5925 10.0196 14.5882 10.0352 13.5863 10.052C13.0608 10.0616 12.7212 10.5758 12.9936 10.9831C13.0838 11.0946 13.1955 11.1867 13.3221 11.254C13.4487 11.3213 13.5875 11.3623 13.7303 11.3747C14.5198 11.424 15.3153 11.3915 16.1085 11.3939C17.0456 11.3939 17.3827 11.7303 17.3851 12.6638C17.3851 14.1776 17.3851 15.6913 17.3851 17.205C17.3851 18.2022 17.0564 18.5338 16.0737 18.5338C13.8431 18.5338 11.6125 18.5398 9.38191 18.5338C9.02211 18.5233 8.66414 18.5889 8.33131 18.7261C7.99847 18.8633 7.69822 19.0692 7.45009 19.3303C7.00134 19.7916 6.53338 20.2337 6.08822 20.6999C5.95649 20.843 5.79516 20.9556 5.61549 21.0299C5.43582 21.1042 5.24213 21.1383 5.04792 21.13C3.94043 21.1192 2.83294 21.13 1.72424 21.13C1.61015 21.1247 1.49641 21.1134 1.38347 21.0963C1.31868 20.0667 1.37148 19.0888 1.76624 18.1517C2.66695 16.0157 3.56286 13.8772 4.45398 11.7363C4.56557 11.4672 4.71436 11.3915 4.99033 11.3939C6.41339 11.4072 7.83525 11.4012 9.25712 11.3939C9.66148 11.3939 10.067 11.4084 10.469 11.3771C10.5558 11.3756 10.6413 11.3567 10.7207 11.3214C10.8 11.2862 10.8714 11.2353 10.9307 11.1719C10.99 11.1085 11.036 11.0338 11.0659 10.9522C11.0959 10.8707 11.1091 10.7839 11.1049 10.6971C11.0977 10.3367 10.8422 10.0808 10.4402 10.0496C10.3202 10.0412 10.2002 10.0496 10.0802 10.0496H5.72346C5.56627 10.0496 5.40789 10.0364 5.18351 10.0268C5.32509 9.68798 5.44389 9.40325 5.56387 9.11852C6.24901 7.48824 7.23531 6.82748 8.98714 6.82628H21.7383C22.4859 6.82628 22.5446 6.88635 22.5446 7.65644V35.3712H18.7962ZM29.5208 36.1713C29.468 33.1799 31.9205 30.6281 34.9203 30.5693C38.0724 30.508 40.6329 32.9396 40.6797 36.0404C40.7253 39.027 38.2559 41.586 35.2802 41.6448C32.1137 41.7049 29.576 39.2949 29.5208 36.1713ZM17.4523 36.1113C17.4469 37.5816 16.8597 38.9898 15.8193 40.0275C14.7789 41.0651 13.3702 41.6476 11.9017 41.6472C8.81796 41.6532 6.303 39.1604 6.3054 36.1016C6.3078 33.0429 8.81916 30.5621 11.9113 30.5753C13.3778 30.5762 14.7843 31.1591 15.8224 32.1963C16.8606 33.2335 17.4458 34.6404 17.4499 36.1088L17.4523 36.1113ZM20.662 5.44829H11.5057C11.6905 4.52923 12.8004 3.5489 13.6739 3.25336C14.1838 3.08156 14.6998 2.92658 15.2133 2.77281C16.6988 2.31748 18.1843 1.85975 19.6721 1.41164C20.2277 1.24465 20.6452 1.49814 20.6548 2.03876C20.6764 3.15845 20.662 4.28055 20.662 5.44829ZM28.4769 38.2245H18.5022L18.8046 36.79H28.1781C28.2801 37.2826 28.3689 37.7331 28.4769 38.2245ZM1.38347 25.2387C2.21019 25.2387 3.01532 25.2111 3.81564 25.2615C3.98962 25.2724 4.2776 25.5631 4.286 25.7349C4.33039 26.7525 4.33039 27.7772 4.286 28.7912C4.2776 28.9702 4.00522 29.279 3.83964 29.2886C3.02612 29.3414 2.2066 29.3126 1.38108 29.3126L1.38347 25.2387ZM1.38347 36.7516C2.53536 36.7516 3.65125 36.7516 4.76715 36.76C4.81941 36.7687 4.86869 36.7903 4.91057 36.8228C4.95245 36.8553 4.98562 36.8977 5.00713 36.9462C5.10432 37.3607 5.17031 37.7872 5.2471 38.2209H1.37627L1.38347 36.7516ZM41.7116 38.2257L42.0104 36.784H44.6165V38.2257H41.7116Z" fill="white"/>
<path d="M16.4985 23.51C16.9928 23.51 17.4872 23.522 17.9804 23.51C18.4735 23.4979 18.7183 23.2481 18.7195 22.8444C18.7207 22.4407 18.4579 22.1776 17.9875 22.1716C16.97 22.1588 15.9525 22.1588 14.935 22.1716C14.4611 22.1716 14.1971 22.4347 14.1947 22.8372C14.1923 23.2396 14.4515 23.4955 14.9279 23.5088C15.451 23.522 15.9753 23.51 16.4985 23.51Z" fill="white"/>
<path d="M35.0751 33.2579C34.7001 33.2571 34.3288 33.3309 33.9825 33.475C33.6363 33.6191 33.3221 33.8306 33.0582 34.0973C32.7943 34.364 32.5859 34.6805 32.4452 35.0285C32.3045 35.3765 32.2343 35.749 32.2386 36.1244C32.24 36.5 32.3158 36.8716 32.4617 37.2177C32.6076 37.5637 32.8207 37.8773 33.0886 38.1403C33.3564 38.4032 33.6738 38.6103 34.0222 38.7495C34.3706 38.8888 34.7432 38.9573 35.1183 38.9513C35.4932 38.9508 35.8642 38.8762 36.2102 38.7316C36.5561 38.587 36.8701 38.3754 37.134 38.1089C37.398 37.8423 37.6067 37.5262 37.7482 37.1786C37.8897 36.8311 37.9611 36.4589 37.9584 36.0836C37.9562 35.7079 37.8797 35.3365 37.7333 34.9906C37.5869 34.6448 37.3734 34.3314 37.1053 34.0687C36.8372 33.8059 36.5197 33.599 36.1713 33.4598C35.8228 33.3207 35.4502 33.252 35.0751 33.2579ZM33.586 36.0836C33.5872 35.8855 33.628 35.6897 33.7059 35.5077C33.7839 35.3257 33.8974 35.1612 34.0399 35.0238C34.1824 34.8864 34.3509 34.779 34.5355 34.7078C34.7201 34.6367 34.917 34.6032 35.1147 34.6095C35.3126 34.6091 35.5087 34.6483 35.6913 34.7246C35.874 34.801 36.0396 34.913 36.1786 35.0541C36.3176 35.1953 36.427 35.3627 36.5007 35.5467C36.5743 35.7307 36.6105 35.9275 36.6074 36.1256C36.6052 36.3239 36.5637 36.5198 36.4852 36.7018C36.4068 36.8839 36.2929 37.0485 36.1503 37.1862C36.0078 37.3238 35.8393 37.4316 35.6547 37.5035C35.4701 37.5753 35.2731 37.6096 35.0751 37.6045C34.8769 37.6051 34.6805 37.5659 34.4977 37.4892C34.3148 37.4126 34.1491 37.3001 34.0103 37.1584C33.8716 37.0166 33.7625 36.8485 33.6897 36.6639C33.6168 36.4793 33.5816 36.282 33.586 36.0836Z" fill="white"/>
<path d="M11.8682 33.2579C11.1124 33.2585 10.3877 33.5588 9.85252 34.0931C9.31735 34.6274 9.01529 35.3521 9.01244 36.1088C9.01524 36.4873 9.09293 36.8614 9.24102 37.2097C9.38912 37.5579 9.60468 37.8733 9.87525 38.1376C10.1458 38.4019 10.466 38.6099 10.8174 38.7496C11.1687 38.8892 11.5442 38.9578 11.9222 38.9513C12.2961 38.9483 12.6658 38.8715 13.0102 38.7254C13.3545 38.5793 13.6667 38.3666 13.9289 38.0996C14.1911 37.8326 14.3982 37.5165 14.5383 37.1694C14.6784 36.8222 14.7488 36.4508 14.7455 36.0763C14.7419 35.702 14.6646 35.332 14.5179 34.9876C14.3713 34.6432 14.1582 34.3312 13.8909 34.0693C13.6236 33.8075 13.3074 33.6011 12.9603 33.4619C12.6132 33.3226 12.2421 33.2533 11.8682 33.2579ZM11.9042 37.6021C11.504 37.6102 11.1168 37.4592 10.8275 37.1823C10.5381 36.9054 10.37 36.5251 10.3599 36.1244C10.359 35.724 10.5167 35.3396 10.7986 35.0555C11.0805 34.7715 11.4635 34.6111 11.8634 34.6095C12.0614 34.6037 12.2586 34.6375 12.4435 34.7089C12.6284 34.7803 12.7972 34.8879 12.94 35.0254C13.0829 35.1628 13.197 35.3274 13.2756 35.5095C13.3543 35.6916 13.3959 35.8876 13.398 36.086C13.4007 36.2841 13.3641 36.4808 13.2902 36.6646C13.2164 36.8485 13.1067 37.0158 12.9678 37.1568C12.8288 37.2979 12.6632 37.4099 12.4806 37.4863C12.298 37.5628 12.1021 37.6021 11.9042 37.6021Z" fill="white"/>
</g>
<defs>
<clipPath id="clip0_25_16">
<rect width="46" height="43" fill="white" transform="matrix(-1 0 0 1 46 0)"/>
</clipPath>
</defs>
</svg>
