<svg width="28" height="30" fill="none" xmlns="http://www.w3.org/2000/svg"><g clip-path="url(#a)"><path d="M13.595 0c.166.132.352.247.495.399 2.018 2.11 4.033 4.222 6.045 6.337a1.065 1.065 0 0 1 .318.785c-.008 1.709-.004 3.418-.004 5.126v.296c.566.198 1.123.347 1.64.583 2.774 1.257 4.538 3.38 5.05 6.377.572 3.343-.546 6.135-3.189 8.275-1.315 1.065-2.847 1.635-4.534 1.783a.763.763 0 0 0-.139.039H17.99a.866.866 0 0 0-.163-.05c-2.717-.31-4.824-1.619-6.34-3.882-.129-.19-.26-.244-.474-.243-2.48.006-4.959.006-7.439 0a4.365 4.365 0 0 1-.93-.085C1.048 25.388.008 24.067.004 22.4c-.005-4.354-.005-8.708 0-13.062 0-1.972-.006-3.944 0-5.918C.008 2.248.466 1.276 1.44.625 1.88.332 2.43.203 2.93 0L13.595 0Zm-1.774 16.202H5.364c-.107.002-.214 0-.321-.01-.368-.04-.592-.266-.6-.598-.01-.343.218-.59.593-.639.097-.008.195-.011.293-.008 2.43 0 4.863-.003 7.294.005a.979.979 0 0 0 .663-.226c1.481-1.176 3.16-1.829 5.056-1.904.277-.01.556 0 .832 0V7.943h-.344c-1.006 0-2.011.007-3.017-.004a3.654 3.654 0 0 1-.9-.094c-1.306-.351-2.078-1.374-2.088-2.757-.009-1.172 0-2.344-.003-3.516 0-.102-.01-.205-.015-.312-.103-.006-.17-.014-.238-.014-3.026 0-6.054.001-9.082.004a2.511 2.511 0 0 0-.664.084c-1.01.281-1.576 1.08-1.576 2.223-.002 6.24 0 12.48.009 18.72-.004.38.073.755.223 1.103.407.879 1.165 1.201 2.102 1.198 2.256-.006 4.511 0 6.767 0 .102 0 .204-.01.342-.015a9.085 9.085 0 0 1-.577-2.566c-.068-.872.022-1.728.202-2.603H5.163c-.45 0-.725-.251-.723-.631.003-.38.263-.6.703-.617h.235c1.513 0 3.027-.027 4.54.014.568.016.982-.058 1.128-.677a.851.851 0 0 1 .122-.235l.653-1.046Zm6.88 12.556c4.051-.02 7.334-3.313 7.33-7.353-.005-4.06-3.322-7.368-7.365-7.342-4.054.026-7.346 3.34-7.316 7.363.029 4.061 3.328 7.35 7.35 7.332ZM14.067 2.193v.299c0 .897-.014 1.795.006 2.691.02.88.661 1.49 1.542 1.5.789.01 1.582.004 2.369 0 .092 0 .184-.007.336-.013l-4.253-4.477Z" fill="url(#b)"/><path d="M8.196 13.068H5.239a1.332 1.332 0 0 1-.375-.044c-.28-.083-.438-.332-.419-.626a.592.592 0 0 1 .51-.556c.116-.014.234-.02.351-.017h5.912c.495.005.796.241.791.625-.004.384-.3.62-.798.62l-3.015-.002Z" fill="url(#c)"/><path d="M18.069 23.939V17.414c0-.47.153-.708.494-.788a.594.594 0 0 1 .716.4c.036.142.053.288.05.434.003 2.06.003 4.12 0 6.181v.314l.096.072c.034-.079.077-.154.127-.223.727-.791 1.457-1.579 2.19-2.363a1.59 1.59 0 0 1 .307-.27.587.587 0 0 1 .727.092c.194.203.25.443.121.7-.061.11-.138.212-.228.301a2516.256 2516.256 0 0 1-3.412 3.667c-.41.438-.747.436-1.163-.01-1.139-1.22-2.28-2.44-3.408-3.671a1.156 1.156 0 0 1-.266-.528.463.463 0 0 1 .308-.54c.185-.059.41-.035.608.006.108.022.199.15.285.241.73.776 1.457 1.554 2.181 2.333.066.07.118.15.176.227l.09-.05Z" fill="url(#d)"/></g><defs><linearGradient id="b" x1="13.643" y1="-.001" x2="13.643" y2="30" gradientUnits="userSpaceOnUse"><stop stop-color="#F7BC4E"/><stop offset="1" stop-color="#F90"/></linearGradient><linearGradient id="c" x1="8.226" y1="11.825" x2="8.226" y2="13.07" gradientUnits="userSpaceOnUse"><stop stop-color="#F7BC4E"/><stop offset="1" stop-color="#F90"/></linearGradient><linearGradient id="d" x1="18.688" y1="16.607" x2="18.688" y2="26.258" gradientUnits="userSpaceOnUse"><stop stop-color="#F7BC4E"/><stop offset="1" stop-color="#F90"/></linearGradient><clipPath id="a"><path fill="#fff" d="M0 0h27.288v30H0z"/></clipPath></defs></svg>