<svg width="360" height="341" viewBox="0 0 360 341" fill="none" xmlns="http://www.w3.org/2000/svg">
<g clip-path="url(#clip0_89_969)">
<path d="M9.90101 114.953L10.7557 113.166L12.3941 114.095L13.4625 111.45L12.8926 110.735L14.6734 109.448L13.1063 108.019L10.8269 108.376L10.4707 105.731L12.8214 104.444L11.3969 103.014L16.098 98.9392L15.1009 98.0815L16.1692 96.6517L13.3912 95.222L12.7502 92.5054L19.2322 90.6466L19.4458 89.9317L23.2209 91.1472L26.284 88.7164L23.7196 85.2134L25.358 85.1421L23.4348 82.3539L25.9991 81.4961L24.2895 80.4952L24.8592 74.1328L25.8566 75.4195L27.7086 71.6307L27.1387 71.4162L25.7854 70.9156L24.6457 72.9889L20.1581 73.1319L21.0128 67.3413L22.9361 67.2699L20.6569 65.1966L21.0841 63.4808H23.5771L24.7882 64.9821L23.9335 65.9114L25.5716 66.9838H27.5661L33.1222 61.1219H34.4042L34.9028 64.053L37.1823 63.2663L36.8973 64.5533L39.3905 64.9821L38.8206 66.698L41.1713 69.5575L42.1684 69.1999L42.3821 72.1312L44.8039 72.2026L47.3682 70.1294L48.2943 70.2724V71.0587L51.6421 71.5593L49.7189 72.2741L50.2175 73.3463L51.7133 72.6313L52.2121 74.4188L58.1241 74.6331L58.4803 73.7038L65.0333 74.0614L66.7429 76.1345L65.7459 76.5633L65.8882 78.8509L67.7401 78.9225L68.4525 72.4171L70.162 72.9174L71.5867 68.7711L78.2822 70.4153V69.1286V68.8427L80.5617 69.1999L82.0576 66.1975L86.9723 64.6963L92.1722 59.9063L93.0983 61.5506L99.7941 61.7651L99.8651 58.3337L103.284 58.4051L104.78 56.0461L108.698 58.8343L107.629 55.4743L119.026 48.9686L118.243 46.2521L123.87 48.6828L124.369 47.396L125.366 49.1117L131.207 50.4698L129.925 52.6147L137.048 53.8298L137.475 52.2571L138.544 52.9719L139.256 53.4725L143.102 47.3244L141.179 45.6803L142.176 43.9644L140.538 40.819L143.458 39.4606L143.814 38.3169L141.393 36.3867L143.386 35.7434L143.244 34.3135L144.67 33.5271L137.048 26.4498L139.754 25.5919L139.398 24.591L143.958 23.0184L144.599 24.3765L147.233 24.2335L147.518 22.5178L149.584 22.3034L149.228 24.0191H148.73L148.231 24.448L149.371 27.2362L150.012 27.3078L152.434 23.8761L156.422 25.4489L156.993 23.2327L164.115 21.0166L165.754 24.0191L168.958 17.6566L171.594 15.9409L170.384 12.9384L173.446 11.9375L169.957 9.64987L171.096 6.36138L178.291 3.57333L178.575 2.28648L180.498 2.92998L182.422 0.427734L186.055 1.78618L185.698 4.07378H187.978L189.046 6.86182L190.97 6.50442L191.611 7.57663L193.462 7.14777L195.457 10.9366L197.807 9.50697L202.009 12.295L203.006 24.5196H207.067L206.853 26.6641L207.994 26.8072L208.421 25.3774L211.198 25.5203L212.908 24.2335H218.108L220.673 25.4489V21.7314L225.16 25.306L224.662 27.951L226.228 30.9535L224.947 33.8846L226.015 40.8905L227.795 42.1058L226.513 44.9653L228.864 46.395L229.149 48.9686L223.664 53.0435L222.809 54.9737L224.306 56.5464L227.724 56.3319L224.448 59.1917L227.653 60.8358L227.368 63.9812L231.428 63.4093L232.425 65.983L230.217 70.8442L234.776 71.6307L235.346 73.9183L232.211 74.4902L233.637 75.9914L232.354 80.8527L234.278 81.8535L233.708 84.856L232.496 86.0714L232.782 86.3572L231.428 87.787L232.569 89.0024L232.354 90.5752L234.634 92.9342L235.702 95.6508L240.616 94.4356L238.551 98.725L240.26 101.942L239.833 105.445L241.116 106.517L240.901 108.876L241.615 111.235L242.398 113.38L245.175 114.238L245.033 118.313L247.028 119.171L247.241 119.314L243.893 121.244L245.888 124.318L248.167 123.674L252.654 122.817L254.935 123.674L260.917 128.965L262.699 131.967L266.759 127.892L270.462 129.679L275.236 127.32L277.87 128.321L275.093 128.75V130.037L277.158 131.109L278.226 128.679L278.725 129.537L276.589 132.611L281.93 140.188L292.616 141.404L297.388 138.33L298.242 139.044L294.823 142.119L297.103 145.98L297.317 149.911L299.88 150.412L300.166 150.339L304.939 148.552L304.439 149.553L307.645 149.482L307.502 152.984L308.784 153.342H311.206L311.135 147.766L316.263 147.553L319.469 145.836L321.321 148.052L324.028 147.766L323.743 144.763L324.882 144.62L326.308 141.046L330.368 141.118L330.439 143.048L331.721 141.618L337.419 142.119L338.916 146.265L337.063 151.269L340.625 156.56L342.049 156.13L345.041 160.634L346.394 160.777L349.101 164.494L348.318 167.068L351.452 170.929L350.596 174.289L349.243 173.788L348.603 173.574L348.887 180.937L357.008 180.579L357.435 183.367L359.144 184.012V184.083L359.002 189.158L356.153 188.658L355.513 194.162L357.72 196.665L359.573 203.098L357.578 204.671L359.5 206.959L359.573 207.103L358.005 207.888L356.225 213.25L349.03 215.823L344.685 220.9L341.479 219.899L330.795 222.615L330.653 222.829L325.596 232.337H328.017L332.077 229.335L332.789 230.693L333.572 232.052L335.567 232.408L331.65 245.92L328.159 242.774L328.444 245.992L322.675 246.134L321.178 243.704L318.899 243.49L318.045 243.346L317.76 247.565L315.979 246.421L317.189 248.566L316.833 249.423H311.064L310.708 251.283L306.292 256L306.363 260.79L301.804 264.936L303.727 267.225L301.875 268.653L300.807 270.798L299.453 273.586L299.88 274.301L297.815 275.517L298.029 276.804L296.747 277.947L300.95 278.519L297.815 281.022L298.527 282.379L295.82 281.522L295.678 280.377L291.475 280.951L290.905 283.309L291.404 285.597L290.62 286.527L292.544 287.67L290.977 292.174L287.415 292.53L285.492 289.742L284.851 292.031L283.427 291.745L282.785 293.747L281.076 291.387L279.723 292.959L274.951 292.603L272.457 297.178L271.033 295.963L270.319 293.102L264.693 295.676L263.838 293.961L261.985 296.105L262.343 297.536L262.841 298.965L261.416 299.465L262.628 301.323L259.849 302.611L260.205 305.184L263.482 304.327L263.909 305.9L261.06 306.4L259.992 307.901L260.561 310.045L259.28 310.761L259.992 315.694L263.197 315.194L265.903 317.623L267.756 317.481L269.394 317.338L270.177 321.413L265.334 323.486L265.262 323.843L265.049 326.345L262.485 323.271L261.345 325.774L258.139 325.631L258.496 327.131L253.723 328.847L253.224 336.282L254.436 336.568L254.009 338.784L250.305 340.572L249.022 339.927L248.096 338.069L240.047 335.782L239.263 329.634L240.83 322.914L237.768 322.986L235.346 320.698L236.771 319.768L236.343 318.981L235.417 317.481L233.993 317.338L233.281 315.479L231.001 314.192L231.997 309.974L230.075 306.543L232.925 304.469L235.274 305.471L234.206 303.254L235.63 304.04L235.488 301.539L239.762 298.68L237.198 293.389L236.129 290.888H233.209L231.001 292.746L228.722 290.743L228.222 290.316L226.228 291.101L223.877 287.526L221.527 289.6L218.82 287.526L218.464 285.381L215.401 285.239L213.193 287.027L211.698 282.951L208.848 283.952L205.429 281.736L205.215 280.377L206.568 280.521L206.283 276.875L204.29 275.231L204.503 274.587L201.867 273.014L202.579 269.011L201.582 268.224L201.511 267.225L200.158 266.938L198.592 265.723L196.739 265.794L193.391 266.867L185.413 268.224L186.767 268.94L187.906 271.012L186.767 271.657L186.838 273.944H187.693L187.55 275.874L186.34 276.016L186.125 278.018L186.625 278.733L183.49 282.021L181.78 281.879L180.854 282.809L176.865 279.734L172.876 279.02L172.52 280.878L171.238 280.163L171.167 278.948L171.523 278.234L171.879 277.304L171.025 274.73L168.531 274.445L168.816 273.586L167.534 273.086L167.961 271.441L166.893 269.583L165.825 269.941L164.684 267.51L164.115 267.652L163.972 266.867L161.836 267.438L160.339 266.938L159.2 267.652L158.844 265.723L157.776 265.937L157.562 267.939L155.994 266.366L155.282 267.51L153.573 266.008L153.502 267.081L153.431 268.94L150.795 267.868L151.934 266.366L150.51 265.723L149.086 266.651L148.16 265.58L146.735 265.794L144.1 263.649L144.741 262.363L144.171 261.934L144.741 260.79L144.242 260.147L145.097 258.145L146.236 256.572L144.599 254.714L144.314 253.283L143.529 251.854L144.527 252.211L144.741 251.354L141.749 248.35L143.102 247.207L140.752 243.847L140.253 244.062L139.042 242.846L139.184 241.488L137.902 239.844L140.752 239.057L140.11 236.985L140.752 234.482L139.256 234.768L139.042 233.481L137.546 232.838L136.05 233.124L136.122 228.906L139.184 228.548L139.113 227.833L135.409 228.12L133.842 226.618L133.7 224.688L131.135 224.331L129.925 221.757L129.568 219.97H129.497L128.571 219.47L128.714 217.04L128.144 216.824L122.16 218.326L123.158 219.47L120.095 222.687L119.952 222.615L118.314 222.186L119.169 220.113L117.601 218.397L118.029 216.539L115.678 213.25L111.12 214.179L107.7 211.891L105.635 213.894L103.997 211.606L104.923 210.247L104.495 208.031L106.062 207.674L105.635 207.103L104.282 205.172L105.564 203.599L103.854 202.956L103.142 204.6L99.0817 206.673L99.6515 207.96L97.942 209.891L97.0873 208.747H97.0159L93.8819 209.103L93.9531 210.104L92.1722 210.391L91.0326 208.318L89.1806 209.461L88.6821 211.82L87.471 211.678L88.1835 213.678L88.3971 214.107L88.1835 215.467L85.6904 214.751L84.8357 218.255L85.1918 218.969L83.3397 220.756L82.2712 223.116L83.2683 223.544L79.9919 225.76L78.8522 223.043L73.7948 222.471L71.4443 225.188L70.0907 224.545L68.9511 221.114L64.5347 219.899L64.4635 218.397L62.8964 219.398L63.1814 220.255L60.9733 219.541L59.7624 217.111L58.3377 216.61L56.3433 218.183L55.2749 215.823L54.064 215.609L53.2092 216.824L50.2888 217.539L48.223 216.038L48.6503 214.323L46.8697 214.394L43.2369 209.604L41.385 211.82L40.6726 210.318L37.396 212.107L35.4015 210.676L31.4126 210.462L30.7002 212.535L31.555 213.393L30.2731 215.538L28.492 214.537L25.7854 215.538L26.7827 216.753L23.2923 217.253L22.0814 218.255L19.3745 217.182L18.4487 217.611L17.0953 216.395L16.0267 216.324L15.6706 214.323L15.4568 213.25L12.6788 212.892L10.7557 209.891L11.8242 208.531L8.47634 205.672L9.82965 205.458L10.9693 202.884L10.6843 197.951L12.1091 197.522L11.5393 195.164L13.8899 193.161L12.0379 192.233L12.7502 190.088L11.0407 188.872L11.183 186.942L13.2488 185.87L12.8214 185.227L13.4625 184.154L12.6788 182.081L15.172 180.794L11.2543 177.577L11.6105 174.146L14.6734 173.859L15.0296 175.29L16.6679 174.646L16.3117 172.787L18.2349 172.644L17.665 167.998L15.3144 167.068L14.9583 164.065L13.1775 163.351L14.4597 159.132L13.32 158.346L12.1091 154.844L12.3941 153.2L14.9583 153.843L13.6761 150.626L14.4597 149.911L14.0323 147.98L13.8185 147.052L10.4707 146.48L10.9693 144.264L7.9065 140.117L7.62151 138.258L5.12852 134.469L6.62426 132.539L4.84367 133.469L4.34505 130.823L0.427246 126.463L4.27369 119.671L5.84078 119.957L7.40787 117.241L6.98046 115.31L9.33103 116.24L9.90101 114.953Z" fill="#0B2D62" stroke="#0F2950" stroke-linejoin="round"/>
<path d="M211.269 151.769L211.198 152.127L206.354 152.413L206.07 152.127L201.297 152.484L202.152 151.627L202.009 151.055L200.514 150.555L199.802 151.126L199.944 152.127L198.948 152.699L200.3 154.629L200.229 155.559L200.799 156.13L201.653 155.772L204.432 156.774L205.286 157.703L205.429 156.344L206.853 154.272L206.283 153.485L206.782 152.771L209.631 152.557L209.275 153.2L209.703 153.772M211.269 151.769L213.763 153.129L213.122 154.201L210.842 153.129L209.703 153.772M211.269 151.769L211.198 150.626L207.353 149.553L208.421 147.409L207.709 143.906M209.703 153.772L209.987 154.558L210.771 154.415L211.983 157.203L214.617 157.489L214.332 158.633M195.315 152.771L195.386 151.841L195.03 151.698L194.745 150.912L195.315 150.697L195.172 150.197L193.889 149.696L193.96 148.624L192.251 149.268M195.315 152.771L192.251 153.485V149.268M195.315 152.771L195.528 154.057L193.889 154.415L194.245 156.13L197.095 155.917L197.593 155.201L199.731 156.344M192.251 149.268L192.038 144.264L191.682 143.12L187.408 139.188M198.592 126.391L199.517 126.463L200.229 127.606L200.016 128.464L199.375 128.393L199.304 127.749H197.593L197.522 128.679L195.884 129.751L197.237 131.538L196.24 132.611L197.308 132.968L197.878 132.611L198.519 133.326L198.092 136.257L197.024 136.828M198.592 126.391L198.948 125.676L200.087 125.748L200.443 126.32L200.941 126.034L201.155 123.889L200.728 123.674M198.592 126.391L197.593 126.749M197.024 136.828L198.947 138.473L201.155 138.544L201.297 139.688L200.941 140.046L202.152 140.975L203.933 139.831L206.639 141.976L207.709 143.906M197.024 136.828L196.525 136.4L191.824 138.115L190.613 138.187L189.33 137.114M188.262 121.029L188.618 121.53H188.761L188.191 122.602L187.479 122.459L187.265 122.674L187.977 123.746L187.265 123.674L186.838 124.89L187.479 126.105L188.405 126.534L190.114 128.679M188.262 121.029L188.689 120.815L188.547 120.744L188.689 120.601L188.832 120.672L188.974 120.386L188.903 119.957M188.262 121.029L188.191 120.958L188.547 120.529L188.405 120.243L188.903 119.957M190.114 128.679L190.185 128.536M190.114 128.679V128.893M168.104 134.183L167.89 133.397L166.466 133.111L167.036 129.68L166.11 128.178L166.964 126.177L166.323 125.891L165.255 126.892L165.398 125.605L164.471 125.176L164.542 124.89M168.104 134.183L165.612 135.971H163.83L162.477 136.828L161.338 136.4L160.626 133.683L159.983 133.612L159.841 132.039L160.767 131.967L160.41 130.895L161.338 130.752L160.982 129.179L162.691 127.535L161.409 127.035L160.626 127.678L158.061 126.677L157.705 126.963L157.918 127.249L157.562 127.535L157.135 127.177L156.637 127.606L157.562 128.965L156.993 129.394L156.708 128.965L155.994 129.537L156.921 130.609L157.42 129.966L159.058 131.038L158.274 132.11L158.702 132.468L158.132 134.255L158.986 134.755L158.773 135.828M168.104 134.183L169.885 132.896L170.455 132.825L169.387 128.679L170.384 128.321M164.542 124.89L164.043 124.961L161.694 126.534L161.48 125.605L157.99 126.391L157.705 125.962L157.918 125.605M164.542 124.89L164.756 124.389L165.469 124.461L165.398 123.889M224.733 122.245L224.519 119.099L221.598 118.527L221.883 115.954L228.864 118.027L230.787 115.453L231.855 115.525L229.932 113.881L231.214 113.666L232.924 113.809L232.496 112.451L234.705 113.38L234.491 112.236L232.853 111.021L233.779 110.306L232.14 109.091L235.203 110.02L234.918 111.879L235.203 112.236M224.733 122.245L222.666 123.389L222.239 121.744L220.317 123.174L221.883 125.319L219.817 125.105L220.174 128.035L217.894 128.107L217.752 128.822L219.603 130.18L219.461 131.61L220.815 134.898L220.744 137.329L218.535 137.114M224.733 122.245L225.516 123.889H228.08L229.292 122.459L231.428 123.031L231.499 120.886L235.346 121.173L235.63 117.169L232.853 116.454L235.773 113.666L236.627 114.596L235.203 112.236M235.203 112.236L236.271 111.236L237.27 112.094L237.054 114.238L238.48 113.523L240.331 115.024L241.899 114.381L240.972 112.665L239.335 112.594L241.614 111.236M218.535 137.114L218.749 135.971L217.752 134.755L216.684 134.827L216.541 137.901L215.614 137.973L214.475 136.972L213.976 139.116L215.614 139.259L218.25 140.046L218.677 139.331M218.535 137.114L218.677 139.331M218.677 139.331L219.247 139.831L218.179 141.261L218.393 143.191L214.119 143.835L212.695 142.333L212.481 143.477L209.916 143.048L207.709 143.906M261.131 139.831L263.696 139.903L262.984 138.902L264.479 138.401L263.696 136.543L264.265 136.042M261.131 139.831L256.359 139.903L256.145 137.973L256.786 137.83L256.572 132.325L258.923 132.253L262.056 133.111L264.265 136.042M261.131 139.831L261.06 140.26L259.279 140.403L259.422 142.047L256.643 143.048L258.425 146.623L259.636 146.908V148.552H260.988L261.202 153.056L259.493 153.343L259.279 155.345L262.343 156.916L261.131 159.991L259.778 160.278L263.34 163.566L263.411 165.709L262.556 166.281L260.775 166.21L261.487 166.853L258.923 170.642L254.436 170.07L253.153 170.642L248.096 170.428M264.265 136.042L264.977 135.327L262.699 131.967M191.468 165.424L192.109 165.853L192.251 166.711L194.103 167.068M191.468 165.424L192.038 164.852L191.895 162.565L191.397 160.705L193.391 162.278M191.468 165.424L189.615 167.783L188.689 168.713M194.103 167.068L194.387 167.354L194.031 167.854L195.101 169.427L194.387 171.358M194.103 167.068L196.24 167.211V165.996L195.457 163.994L193.391 162.278M168.104 181.438L169.029 181.938L170.241 185.369L170.882 185.941L171.594 185.369H172.52L172.591 185.583M168.104 181.438H167.605L166.751 182.439H166.181L163.474 186.942L162.691 187.228L162.975 188.157L161.48 188.801L160.339 188.086L160.126 190.445L157.918 189.588L156.208 190.088L156.85 188.801L156.208 188.373L157.633 187.514L154.997 187.228M168.104 181.438L169.243 181.366M172.591 185.583L173.232 185.941M172.591 185.583L171.95 187.443L170.597 187.514L171.381 189.087L169.814 190.231L170.455 191.804L170.099 192.304L167.392 191.661L165.754 194.734L166.608 195.164L168.175 194.592L171.025 196.737L170.526 197.88L172.662 197.38L172.52 196.093L174.586 196.593L175.37 195.736L173.945 192.59L175.654 191.517L174.302 190.589L175.298 189.659L173.803 189.087L173.161 187.443L173.303 186.155M150.866 187.585L147.731 188.587L146.735 188.229L147.945 190.017L142.817 190.945L144.1 191.661L139.825 191.946L137.119 194.663L136.193 194.091V195.949L134.412 195.736L132.204 199.596L130.779 200.168L130.352 202.598L133.059 204.1L131.349 209.818L134.626 210.605L129.853 212.893L128.143 216.824M150.866 187.585L150.795 187.3L151.934 186.728L151.364 185.227L152.648 184.012L153.36 184.797L153.787 184.368L152.932 183.367L154.143 183.796L154.713 182.653M150.866 187.585L151.578 190.589L153.217 189.873L154.001 190.445V188.229L154.997 187.228M139.113 227.834L142.318 227.62L142.105 226.261L144.456 225.689L143.814 217.468L149.157 214.679L148.73 216.682L156.993 217.182L165.896 213.251L168.816 209.675L171.096 213.751L172.662 211.749L173.874 213.536L174.586 210.176L176.651 210.89L176.509 207.388L179.287 208.031M179.287 208.031L180.427 206.959L181.637 208.532L182.493 207.817L181.424 205.386L181.21 200.454L176.58 199.453L175.441 198.023L175.939 195.878L178.219 195.378L176.936 194.305L179.145 190.803L178.931 189.588L181.067 188.515L183.134 184.368M179.287 208.031L180.213 208.747L177.934 212.107L178.504 213.251L179.857 212.606L181.495 215.538L179.145 216.11L181.21 221.9L177.648 223.043L179.501 223.973L176.438 227.834L177.577 230.837L178.291 230.192L182.707 230.479M138.116 173.145L137.332 170.142L133.415 171.071L134.839 172.144L134.483 172.644L133.13 172.073L132.417 173.574L134.341 173.86M138.116 173.145L134.341 173.86M138.116 173.145L140.395 170.929L141.606 171.786L141.82 170.428L144.812 171.071L145.666 169.142L146.948 168.57L147.447 168.998M134.341 173.86L132.132 176.076L132.275 174.431L125.579 175.29L124.084 177.363L119.596 177.72L119.667 180.294L116.747 182.724L110.478 183.796V185.155L107.059 183.367L106.133 185.155L105.564 183.082L102.501 182.868L102.287 186.584L97.3722 181.438L93.7394 184.869M148.374 169.785L149.94 171.501M148.374 169.785L147.66 170.714L147.945 171.358L146.663 170.714L145.738 171.572L145.453 171.358L146.735 169.57L147.447 168.998M148.374 169.785L147.945 169.285M149.94 171.501L150.083 169.856L150.866 169.285L152.505 169.785L153.716 169.142L154.784 169.999L154.072 170.858L154.641 171.786L151.293 173.288M149.94 171.501L149.228 172.502L150.012 173.931L151.293 173.288M151.293 173.288L151.151 174.718L149.798 175.147L151.151 177.291L152.005 176.147L153.858 176.934L151.364 178.078L151.578 179.008L155.923 179.293L157.064 178.149L156.993 180.866L154.713 182.653M154.713 182.653L155.353 182.939L154.855 184.226L155.567 184.655L154.997 187.228M147.945 169.285L149.655 167.498L149.228 166.281L151.792 165.138L154.641 165.853L155.567 163.493L156.35 164.423L156.708 163.923M147.945 169.285L147.518 168.713L147.447 168.998M156.708 163.923L157.064 164.209L155.923 165.424L155.781 166.497L156.637 167.498L157.206 166.997L158.915 168.57L159.77 167.569L161.409 167.712L161.907 166.782L161.836 163.923L163.26 163.994L168.531 172.001L171.096 173.288L171.594 174.217L170.526 174.36V175.003L171.381 175.575L171.737 176.576L171.096 177.72L169.814 177.219L168.602 178.792L165.967 179.58L166.181 180.866L167.036 180.294L168.673 180.579L169.243 181.366M156.708 163.923L156.993 162.278L158.844 162.421V161.135L159.983 162.35L160.909 161.135L161.338 161.849L161.907 161.421L161.338 159.848L159.77 157.775L158.417 153.343L158.488 148.052L156.708 150.339L156.208 149.983L155.709 150.555L154.997 150.197M92.4571 126.32L92.8845 125.605L92.742 124.747L93.5968 123.603L94.879 124.247L95.3063 125.819L96.5884 126.034V130.037L93.3118 129.966M92.4571 126.32L91.6735 126.32L92.1721 124.318L86.6162 123.532L87.186 125.891L85.1203 127.106L84.6217 121.744L83.4108 121.601M92.4571 126.32L93.3118 129.966M93.3118 129.966L93.0981 132.253L95.2351 132.11L99.509 139.045L94.6651 140.617L96.5172 142.119L94.6651 144.264L92.8132 144.191L93.0269 148.196L95.3776 147.052L95.6625 149.195L97.2296 150.197L97.5144 148.91L98.7966 149.482M152.434 133.326L151.792 132.968L151.507 131.753L152.505 130.109L154.784 131.467L155.567 128.965L154.428 128.393L154.57 130.323L153.929 130.395L154.001 129.036L151.72 129.251L151.08 127.892L152.148 127.678L150.652 126.534L149.869 128.893L148.659 125.748L150.225 125.319M152.434 133.326L151.792 134.47L152.719 135.256L150.296 134.827V135.828L148.659 135.542L149.727 134.684L147.874 134.47L144.527 132.182L142.318 133.254M152.434 133.326L153.288 134.183L153.716 133.254L154.641 135.756L156.421 137.257L157.064 135.542L157.918 136.114L158.773 135.828M150.225 125.319L150.012 124.175L148.16 123.603L147.233 125.033L147.803 128.035L145.453 126.32L142.603 126.105L143.03 125.033L142.461 122.745L143.458 122.102L141.606 119.028L143.173 118.67L144.027 119.743L145.951 118.599L150.937 122.102L150.368 122.745H151.222L151.008 125.176M150.225 125.319L151.008 125.176M151.008 125.176H152.719L152.79 126.105L155.353 124.961L157.064 125.962L157.918 125.605M157.918 125.605L159.698 124.104L160.268 123.174L161.409 123.246L161.978 121.959L162.762 122.173V122.602M186.196 49.7551L188.12 51.3279L187.835 52.972L188.689 53.2581L189.686 56.0462L189.402 58.1907L190.613 59.9064L190.185 60.9789L192.394 61.5507L194.459 65.0537L192.038 67.1269L190.613 69.9864L192.038 72.7745L189.046 77.2784L189.259 79.6376L187.265 81.4962L188.974 85.9285L185.84 87.7158L189.259 88.0732L189.971 92.3625L188.761 93.006M188.761 93.006L188.832 94.8647L190.042 94.3643L195.528 93.4348L202.65 97.5097L204.361 96.5804L205.002 98.868L206.07 99.9403L212.979 99.2254L213.549 99.8687H216.613M188.761 93.006L187.408 92.6485L184.914 95.794L181.637 98.868L182.849 101.227L181.923 104.659M111.832 106.875L113.043 106.517L113.399 107.661L115.251 102.8L112.616 100.655L114.396 99.0823L113.613 98.5106L114.61 97.2952L114.182 95.2935L118.171 93.7922L118.67 92.7916L122.374 92.3624L122.588 88.788L124.226 86.7149L123.799 84.5702L126.363 84.7132V82.5685L129.639 81.8536L132.987 83.2835L133.272 81.6392L129.996 79.2086L133.771 79.1371L132.275 75.5627L134.127 75.3482M111.832 106.875L110.835 105.945L109.837 106.66L110.977 107.447L110.407 108.733L106.917 107.447L107.7 110.521L105.777 110.235L105.136 111.307L102.501 110.378L96.3748 112.236L94.3803 110.949L93.2406 112.594L85.6903 112.808M111.832 106.875L112.33 108.09L114.966 110.092L117.245 109.734L120.807 115.382V117.169L131.563 119.242L132.774 123.46L136.905 122.316L136.549 127.606L138.401 128.035L139.327 130.895L140.395 130.609L139.612 132.182L141.108 131.467L142.318 133.254M134.127 75.3482V76.5634L139.398 82.5685L139.469 84.0697L142.746 85.2851L143.744 87.3584L141.82 89.36L142.033 91.2902L148.445 90.8612L150.225 94.3642L151.507 95.0077L152.576 96.5804L149.655 101.156L150.581 106.088L152.005 105.874L154.072 108.376L151.649 109.591L151.507 111.951L154.214 115.525L154.855 114.881L159.414 115.954L159.129 114.524L160.695 115.382L161.195 114.667L162.477 115.882M134.127 75.3482L133.842 73.2751L134.697 72.4172L133.557 72.2742L133.486 71.2018L135.694 70.7727L134.127 69.5576L134.626 67.27L130.565 63.338L133.486 60.4785L134.839 57.6904L138.472 57.6188L140.467 55.9746L139.612 54.6163L137.047 53.8299M70.5892 81.6392L67.74 78.9226M70.5892 81.6392L72.4414 85.2851H75.5753L74.3646 87.2868L77.0001 90.3609L74.0084 90.8612L76.4302 95.2935L80.5616 95.1506L80.2055 97.7241L86.4738 101.084L84.693 106.803L85.6903 112.808M70.5892 81.6392L67.8114 82.0681L67.5977 90.0034L63.6799 89.0741L62.6827 92.2195L63.7513 94.9361L57.4829 96.0085L57.1267 97.6527L49.149 96.8663L40.6725 100.512L41.0999 105.302M19.2321 90.6467L19.873 91.719L19.9444 92.7915L22.5087 96.0084L23.7195 95.2935L23.5771 94.8646L25.0017 94.4356L27.2812 96.2942L25.6429 97.9386L27.4235 98.5821L28.9194 98.296L29.2044 98.725L27.8511 101.37L28.4208 102.228L33.0508 101.513L35.3303 105.087L37.0397 103.229L39.0342 103.944L38.108 105.302L38.6781 106.589L41.0999 105.302M41.0999 105.302L42.0258 107.232L39.7466 108.805L37.5384 115.954H42.1684L40.1025 118.17L41.1713 122.674L43.949 123.603L43.4505 127.321L41.1713 129.322L42.3106 132.253L36.7547 137.4L38.393 141.69L35.3303 144.407M14.0322 147.98L18.4486 148.196L17.8075 150.912L19.7306 151.769L20.7992 151.055L23.2922 151.484L24.5032 148.768L27.6373 148.124L28.7769 146.908H30.629L31.5549 143.906L35.3303 144.407M35.3303 144.407L34.3329 146.694L37.0397 152.199L33.5494 154.773L37.1109 154.272L37.2535 155.772L44.2339 155.201L45.2313 157.632L47.0121 158.133L47.653 155.63L50.2887 154.629M148.16 265.58L149.584 264.722L149.157 264.15L149.727 262.649L151.08 261.863L149.727 260.218L149.869 258.788L145.382 259.217L145.097 258.145M181.851 245.992L184.914 247.207L184.416 249.423L187.764 249.852L187.337 252.927L189.686 253.641L188.049 255.929L190.114 260.147L196.169 262.72L196.739 265.794M181.851 245.992L180.498 245.707L179.002 244.134L175.868 244.062L171.737 247.207L172.021 243.847L168.673 246.063L168.032 240.63L163.759 239.201L162.334 237.771L161.124 240.273L157.705 238.843L154.499 241.059L150.724 238.772L148.73 242.703L147.945 240.774L140.752 239.057M181.851 245.992L181.495 243.204L185.128 242.418L178.86 237.913L184.202 237.557L182.849 233.196L182.707 230.479M242.469 289.815L244.961 292.317L248.737 290.959L249.949 292.746L253.295 291.674L257.64 295.033L257.998 298.751L262.343 297.536M242.469 289.815L241.187 290.316L240.759 292.388L237.198 293.389M242.469 289.815L245.032 284.81L241.97 282.952L241.116 278.877M290.905 283.31L289.837 284.311L287.843 283.523L289.623 283.094L291.619 278.949L288.627 279.163L288.199 278.019L289.908 277.089L289.339 272.657L287.843 273.373L285.492 271.228L284.353 268.369L280.079 269.869L277.514 266.58L269.038 266.152L266.973 262.435L263.909 263.936L265.049 260.076L260.775 260.648L260.348 259.217M260.348 259.217L258.496 257.573L259.778 256.572L257.355 256.429L258.995 253.355L257.998 250.925M260.348 259.217L256.786 259.575L260.134 261.433L260.063 264.651L256.43 264.437L257.783 270.441L254.792 269.368L254.721 273.301L249.877 270.941L241.116 278.877M299.595 180.223L300.736 180.866L300.022 183.583L301.234 184.869L316.548 185.084L315.266 185.941L315.836 188.945L317.831 190.445L317.76 194.234L315.124 194.305L315.195 196.521L312.488 196.808L312.986 200.239L311.064 200.597L311.847 202.313L308.856 205.029L307.431 205.101V209.962L308.499 211.32L306.79 212.964L308.072 215.251L312.559 215.037L312.773 217.325L314.91 218.183L316.121 217.396L320.395 217.111L322.532 223.044L323.956 223.831L323.743 225.546L327.162 228.12L325.238 230.55L323.458 234.268L324.668 237.27L322.105 239.201L320.679 238.914L318.899 243.491M299.595 180.223L292.829 181.08L286.703 180.437L286.275 184.083L284.21 185.441L283.354 184.083L276.731 183.796L276.09 186.8L274.88 187.799L276.304 190.731L271.674 190.374L271.745 195.593L268.468 197.522L266.046 197.38M299.595 180.223L298.171 174.932L301.733 175.361L305.935 171.859L303.94 171.214L306.576 165.066L311.349 158.061L308.784 153.343M235.915 218.969L235.417 220.971L233.209 220.4L232.853 222.901L234.206 223.259L235.915 225.904L235.701 227.62L233.565 226.977L230.858 230.264L232.425 231.694L233.138 230.05L234.206 231.336L232.282 233.982L233.708 233.768L234.064 235.841L235.346 235.125L234.989 238.342L233.993 237.771L232.496 240.416L233.565 241.273L232.709 244.563M235.915 218.969L237.483 218.898L237.27 217.897L241.899 219.684L240.972 218.039L242.54 217.325L245.175 219.327L249.877 215.967L250.803 217.468L258.069 216.967L259.991 214.108L265.618 215.823L267.258 213.894M235.915 218.969L235.701 217.611L234.491 216.896M232.709 244.563L234.562 246.778L238.907 246.564L243.608 248.566L245.105 247.708L246.6 250.925L250.233 251.568L248.808 253.641L254.507 253.355L257.142 254.785L257.998 250.925M232.709 244.563L230.716 245.135L230.288 246.564L226.869 246.35L226.157 249.852L224.59 250.066L225.374 255.214L231.072 257.43L230.929 260.361L227.51 261.362L225.16 264.508M257.998 250.925L257.142 244.777L259.137 244.848L263.624 250.066L270.819 249.781L271.175 246.85L266.617 241.774M266.617 241.774L267.4 238.7M266.617 241.774L264.052 240.701L263.482 243.133L260.988 241.918L259.92 238.772L255.931 242.203L252.085 232.767L253.082 231.908L252.725 230.121L255.219 230.622L257.142 233.552L259.066 233.481L263.268 237.771L267.471 236.556L267.4 238.7M267.4 238.7L271.958 242.561L278.226 244.062L279.723 240.63L278.084 238.914L283.354 232.123L290.692 235.125L297.317 229.836M297.317 229.836L293.328 229.478L290.122 227.976L288.769 229.836L285.634 229.049L286.062 227.048L282.856 226.261L281.218 220.827L271.674 224.187L268.895 217.897L272.671 214.895L269.18 215.609L267.258 213.894M297.317 229.836L306.434 230.05L309.426 236.269L309.355 238.414L311.562 238.485L311.491 242.632L315.978 246.421M162.762 122.602H163.83M162.762 122.602L162.477 123.103L164.399 123.46L164.613 123.889H165.398M163.83 122.602L163.901 121.387M163.83 122.602L165.255 122.173L165.469 123.103M165.469 123.103L165.398 123.889M165.469 123.103L167.819 121.601L169.956 123.46L169.672 124.532L170.455 125.605L169.529 126.82L170.028 126.892L170.384 128.321M156.85 146.979L156.637 146.837L155.994 146.765L156.137 145.98L157.277 145.335H158.63M156.85 146.979L157.064 147.98L155.709 149.84L154.997 150.197M156.85 146.979L156.993 146.837L158.63 147.838L159.698 145.98L159.841 145.264M158.63 145.335L158.773 146.051H158.986L159.342 145.192M158.63 145.335L158.915 144.692L159.414 144.979L159.342 145.192M159.342 145.192L159.841 145.264M159.841 145.264L160.339 142.691L159.058 142.548L157.918 143.691L157.491 142.762V143.62L156.85 142.977L156.708 141.904L156.421 141.404L157.064 141.046L155.923 140.975L156.493 139.688L156.279 139.188L157.776 137.901L158.203 138.044L159.129 137.758L159.2 138.759L158.986 139.188L159.271 139.617L160.41 139.402L160.839 137.973L161.409 137.4L160.909 136.9H159.271L158.773 135.828M85.6903 112.808L84.052 114.309L82.2711 111.593L79.778 112.737L80.2055 117.312L81.8438 118.456L81.9149 120.315L82.8411 119.886L83.4108 121.601M50.2887 154.629L51.8558 154.558L51.642 157.846L53.7077 159.276L59.2637 156.989L63.5375 160.349L62.3266 162.85L65.1758 162.278L64.5346 164.781L66.9566 165.925L65.9594 167.926L68.1674 168.284L69.0936 173.216L71.0878 171.429L73.7948 175.29L75.4331 174.004L80.633 183.011L79.4931 184.584L76.0029 184.226L77.0714 187.085L71.7289 190.017L72.7261 191.232L72.0851 192.59M50.2887 154.629L51.927 153.343L51.2146 152.127L47.5818 150.268L51.5708 147.838L53.5653 151.983L55.5598 145.98L60.1897 144.836L60.6882 143.334L68.0962 142.476L68.8797 137.83L70.1619 142.548L71.3728 142.262L71.2304 138.687L76.2879 135.041L73.0111 133.969L75.5041 132.468L74.1508 130.323L79.2795 127.106L79.0659 125.676L76.4302 124.604L77.4986 122.245L83.767 123.103L83.4108 121.601M72.0851 192.59L69.0223 193.019L63.9649 197.809L63.2527 202.026L64.4634 199.954L66.2443 200.526L65.1046 205.459L60.8306 207.103L59.2637 205.459L53.9213 206.602L53.6363 211.391L52.283 211.535L54.0639 215.609M72.0851 192.59L73.2249 195.021L78.2821 195.306L79.7068 197.88L83.767 195.021L84.6217 197.594L89.6079 195.736L92.0299 196.307L91.8159 192.16L95.8763 190.731L93.668 187.872L93.7394 184.869M98.7966 149.482L100.791 151.698L99.7227 152.413L100.364 155.201L99.4378 157.06L103.427 162.636L101.717 163.994L101.503 167.854L103.925 169.928L100.221 171.358L97.0158 174.861L91.175 175.862L89.0381 177.863L89.8216 179.722L88.5395 181.151L91.4599 182.081L93.7394 184.869M98.7966 149.482L100.506 147.409L104.424 149.195L104.495 146.48L106.133 146.908L109.339 142.262L115.465 142.834L116.818 144.407L122.232 143.906L123.941 146.407L127.289 145.408L129.568 149.268L134.341 151.412L138.686 151.34M142.318 133.254L141.037 133.898L142.247 135.399L144.314 136.042L144.741 138.33L142.39 141.404L143.744 142.977L143.173 145.408L141.606 145.622L141.321 148.196L137.902 149.911L138.971 151.055L138.686 151.34M138.686 151.34L138.686 153.343L141.25 155.201L142.39 153.485L144.314 153.629L145.809 154.987L148.445 152.199L152.219 153.629V150.984L154.997 150.197M162.477 115.882L162.619 116.812L161.338 117.598L161.48 119.314L162.406 119.743L161.622 120.744L163.901 121.387M162.477 115.882L163.545 116.526L166.964 112.308L167.605 112.451M182.707 230.479L182.564 228.406L183.348 226.69L187.408 228.334L187.265 229.264L191.254 231.336L191.966 229.765L191.041 227.62L192.892 227.333L193.106 225.975L194.887 227.976L196.881 227.477L198.875 226.047L198.092 223.116L196.881 223.688L196.311 221.043L197.308 219.541L196.169 218.827L196.952 216.539L199.446 217.683L198.376 218.684L200.016 221.185L204.574 217.611L206.568 217.968L209.275 215.395L210.842 214.966L211.127 213.322M169.243 181.366L169.885 181.509L170.74 182.51L170.241 183.796L172.021 183.367L171.309 182.724L172.164 182.367L172.449 181.509L173.232 181.938L172.876 184.154L173.518 184.584M163.901 121.387L168.246 120.601L168.531 119.886L168.104 118.742L166.751 117.598L167.819 117.098L168.104 115.739L170.028 114.452L170.17 113.952L168.46 114.095L168.388 114.667L167.677 114.452L167.605 112.451M167.605 112.451L167.89 110.807L169.6 108.662L168.531 107.876L169.173 105.588L167.89 103.872L168.745 103.658L168.246 102.157L171.95 100.798L175.227 101.227L179.359 104.802L181.923 104.659M181.923 104.659L182.564 104.944L182.493 106.303L181.21 106.589L180.284 111.021L181.923 111.951L181.566 112.451L189.615 119.385L188.903 119.886V119.957M170.384 128.321H170.882L170.597 127.106L172.805 126.534L173.232 126.892L173.303 127.606L172.378 127.535V128.464L172.805 128.75L172.662 129.394L172.449 129.465L172.093 129.68L172.164 132.039M173.232 185.941L173.303 186.155M173.232 185.941V185.727L173.518 184.584M173.303 186.155L173.803 185.084L175.37 185.512L175.797 182.724L179.074 183.367L182.137 181.438L183.134 184.368M198.875 177.363L197.949 179.651L198.376 182.581L199.019 181.867L200.443 184.368L199.232 185.441L198.234 183.868L196.952 185.084L196.24 184.226M198.875 177.363L197.38 176.505L196.739 175.575L195.671 175.29L194.031 173.074V171.93M198.875 177.363L200.941 178.006L200.799 176.291L201.582 175.79M196.24 184.226L195.315 183.796L196.881 187.657L199.09 186.871L200.656 192.018L198.02 193.662L200.3 195.593L200.941 194.735L202.081 195.449L203.649 199.81L204.574 199.024L206.497 200.74L207.353 202.813L205.856 204.814L204.717 204.529L204.005 205.958L203.435 205.243L202.65 206.03L204.147 207.817L205.642 208.174L205.429 209.462L208.207 208.89L208.848 207.245L210.628 208.103L210.415 209.604L211.698 209.747L210.771 211.391L211.127 213.322M196.24 184.226V183.082L194.745 182.296L194.316 180.937L192.465 183.725L190.898 181.938L191.254 185.583L186.696 184.368L186.125 185.799L183.134 184.368M173.518 184.584L174.017 184.94L175.085 184.368L174.729 182.868L173.874 181.867L173.446 181.652L173.732 179.722L174.159 176.863L175.298 176.362L174.658 174.718L179.572 175.29L181.281 174.718L186.411 171L188.689 168.713M211.127 213.322L212.908 212.392L216.256 212.821L219.817 211.963L220.53 212.679L223.236 211.892L223.094 214.466L224.162 215.251L228.364 213.107L231.641 213.465L232.496 216.682L234.491 216.896M216.613 99.8687L216.541 99.9403L213.478 102.442L212.979 102.085L212.054 102.728L212.267 103.443L210.201 104.659L212.766 106.589L211.698 108.019L209.631 106.66L208.563 108.233L210.13 110.306L211.625 109.448L212.267 109.877L211.625 112.022H212.481M216.613 99.8687L232.496 86.0715M189.33 137.114L187.408 137.257V139.188M189.33 137.114L189.259 136.471L191.824 136.257L193.319 133.969L191.824 132.968L188.547 133.612L188.334 132.253L189.259 129.68L190.114 128.893M187.408 139.188L182.137 134.47L181.067 134.327L180.356 134.255H178.433L173.661 132.396L171.95 132.539M190.185 128.536L190.898 129.608L192.394 127.964L193.96 129.251L193.319 130.323L192.038 130.609V129.966L191.539 129.823L190.898 130.395L190.114 128.893M190.185 128.536V128.321H191.326L190.97 127.463L191.468 127.035L192.536 127.463L193.248 126.963L197.024 127.321L197.593 126.749M188.689 168.713L188.974 168.998L189.046 170.142L190.258 170.357L190.97 169.498L192.75 169.427L194.031 170.857L192.892 171.429L194.031 171.93M194.031 171.93L194.387 171.358M194.387 171.358L196.881 170.642L198.305 174.932L198.875 175.575L200.443 175.074L201.582 175.79M200.728 123.674L199.446 122.102L200.158 121.959L201.511 122.96L202.937 122.817L201.938 119.814L204.005 118.241L202.937 116.955L206.07 117.098L208.065 115.096L209.631 117.169L210.7 116.097L212.481 116.24L213.407 117.955L214.404 114.739L212.481 112.022M200.728 123.674L199.446 124.032L197.38 122.173H195.528L194.316 124.532L194.387 125.176L195.101 125.891L195.955 126.034L196.027 125.319L197.593 126.749M208.065 159.49L207.922 160.491L209.489 161.993L208.919 163.566L208.207 163.493L207.28 164.924L206.354 164.781L206.639 166.067L205.144 167.14L205.286 168.641L203.293 168.998L200.656 167.282L200.016 168.426L201.724 169.57L202.864 169.356L202.65 170.5L201.013 171.572L202.081 172.573V174.289L202.793 174.431L203.221 175.862L201.582 175.79M208.065 159.49L204.93 158.418L204.503 157.561L202.579 158.705L201.796 157.274L200.229 156.273L199.731 156.344M208.065 159.49L209.133 159.348V158.99L211.198 157.846L212.267 158.847L214.332 158.633M193.391 162.278L193.747 160.563L193.391 160.278L193.818 159.92L192.892 158.99L193.248 158.705L194.316 159.633L195.457 158.347L198.02 158.133L198.092 157.203L199.731 156.344M212.481 112.022L215.258 111.379L216.613 108.876L220.245 105.517L221.456 105.445L223.521 103.586L224.162 101.727L234.634 92.9343M214.332 158.633L217.894 159.848L217.823 162.278L219.105 162.136L221.171 160.921L223.094 161.206V162.278H225.801L226.584 161.348L230.929 160.349L232.211 159.276L233.565 160.921L236.698 161.778L237.554 162.85M241.116 278.877L237.554 278.733L239.05 273.8L234.42 273.729L236.129 272.014L233.423 266.58L234.776 264.437L229.648 263.865L226.513 265.009L225.16 264.508M225.16 264.508L223.236 263.22L221.67 264.579L218.464 262.935L215.4 264.008L214.261 266.08L210.486 269.154L207.851 267.439L205.286 266.938L201.511 267.225M237.982 151.556L238.124 152.27L241.258 155.701L239.121 156.845L240.118 158.133H237.982V162.708L237.554 162.85M237.982 151.556L240.972 151.412L240.83 150.697M237.982 151.556L237.054 151.556L236.913 152.341L235.132 152.771L233.993 151.269L230.858 151.412L230.217 148.124L233.138 144.763L232.782 144.191L236.271 143.406L238.053 144.692L237.697 145.622L239.548 146.336L240.83 150.697M237.554 162.85L237.697 163.709L243.395 165.853L244.249 170.642L246.173 169.785L247.384 169.57L248.096 170.428M234.491 216.896L238.053 214.751L237.982 210.819L239.904 208.89L240.118 206.316L236.271 203.17L238.195 199.81L239.762 199.596L239.192 196.95L234.206 198.023L234.064 195.235L232.282 193.876L232.496 191.517L228.935 189.944L230.288 187.872L230.431 184.655L234.42 185.512L235.701 179.293L239.335 176.79L247.028 176.719M247.028 176.719L247.455 176.147L248.879 177.219L249.235 175.575L244.819 171.859L248.096 170.428M247.028 176.719L248.737 178.363L247.669 180.151L249.306 181.724L248.95 183.94L255.219 182.152V185.155L253.366 187.443L255.718 189.23L259.137 188.444L259.991 195.021L265.618 195.52L265.334 197.308L266.046 197.38M240.83 150.697L241.33 148.267L241.258 145.622L247.597 143.191L247.384 141.189L248.879 139.974L248.096 136.828L249.45 131.181L251.586 130.323L247.74 128.393L248.167 123.674M266.046 197.38L267.756 200.953L267.186 204.671L269.75 205.243L268.183 207.889L265.191 208.89L268.539 209.675L266.617 211.606L267.258 213.894M171.95 132.539L171.737 132.611L172.164 132.039M171.95 132.539L172.164 132.039M130.067 154.629L124.297 154.844L126.078 151.912L123.015 153.629L121.947 151.841L117.886 152.27L119.311 156.631H116.319L117.459 158.133L116.604 161.206L121.234 160.992V157.917L123.3 161.421L125.01 160.491L123.585 156.989L127.004 156.631L126.363 159.991L130.067 154.629ZM167.392 258.288L164.613 259.003V256.643L166.11 254.571L163.687 254.071L162.263 254.999L162.406 252.927L160.126 252.282L160.41 254.571L156.993 256.643L157.349 258.432L159.129 259.289L157.99 260.218L162.263 260.79L162.548 262.292L164.115 259.431L167.605 260.648L167.392 258.288ZM179.145 270.155L178.575 266.652L176.936 266.08L170.74 268.297L173.09 269.297L175.797 271.513L179.145 270.155ZM168.531 198.809L168.175 200.31L166.893 199.525L166.68 200.31L167.392 200.597L167.107 202.17L168.602 202.956L167.819 203.456L169.956 204.028L170.312 202.097L171.879 202.742L173.945 201.598L174.729 201.883L174.942 201.383L173.303 199.525L171.381 198.237L170.312 198.666L169.885 200.382L168.531 198.809ZM119.81 204.028L116.604 204.814L116.533 207.103L120.166 206.959L119.81 204.028ZM271.745 146.765L271.602 148.196L272.671 148.91L278.084 147.337L276.161 146.908L278.226 141.69L277.372 142.047L275.876 139.903L274.879 141.261L271.389 141.404L271.104 143.477L269.607 144.621L268.397 147.123L268.895 148.768L271.745 146.765ZM336.422 165.353L339.058 165.638L339.699 161.421H338.202L337.419 160.062L336.422 161.135L336.137 160.278L334.071 160.349V161.421L332.931 161.564L332.86 163.208L330.51 164.71L329.654 166.425L330.012 167.425H331.08V166.853L335.282 167.211L336.422 165.353ZM221.1 191.375L219.247 194.234L217.965 192.018L216.897 192.447L218.535 196.665L222.666 197.522L223.236 196.593L224.59 197.093L223.378 195.306L225.302 194.735L221.1 191.375ZM192.322 144.763L193.106 145.693L193.533 145.479L193.675 145.836H194.031L195.101 144.407L195.813 144.907L196.311 144.549L196.169 144.049L194.174 143.835L194.602 143.191L193.96 143.334L193.889 143.906L192.322 144.763ZM196.454 161.706L198.092 159.777L200.728 160.491L200.656 162.064L200.941 162.636L197.522 162.136L197.237 162.494L196.454 161.706ZM205.927 175.432L205.998 174.075L205.286 173.145L205.429 172.144L207.78 171.643L208.278 170.142L210.913 169.928L213.335 171.643V173.359L215.472 175.003L214.76 177.649L217.752 180.223L216.897 181.295L213.549 177.791L211.625 178.507L211.055 179.008L209.347 177.005L207.566 175.219L206.497 175.862L205.927 175.432ZM146.735 159.562V161.135L144.954 162.136L144.385 162.064L144.314 159.562H146.735ZM209.418 125.176L206.354 123.818L205.927 124.604L205.144 125.247L204.005 124.604L203.791 124.818L204.574 126.534L206.853 128.464L206.497 128.965L206.782 129.179L208.421 128.321L208.207 126.534L207.638 125.962L207.851 125.533L209.204 125.891L209.418 125.176ZM213.264 136.328L211.625 135.399L211.484 136.114H211.055L210.984 135.613L210.486 135.685L210.7 136.4L210.272 136.757L210.486 136.9L212.125 137.973L213.264 136.328Z" stroke="white" stroke-opacity="0.21" stroke-linecap="round" stroke-linejoin="round"/>
<path d="M158.844 162.421V161.135L159.983 162.35L160.909 161.135L161.338 161.849L161.907 161.421L161.338 159.848L159.77 157.775L158.417 153.343L158.488 148.052L156.708 150.339L156.208 149.983L155.709 150.555L154.997 150.197L155.709 149.84L157.064 147.98L156.85 146.979L156.993 146.837L158.63 147.838L159.699 145.98L159.841 145.264L160.339 142.691L159.058 142.548L157.918 143.691L157.491 142.762V143.62L156.85 142.977L156.708 141.904L156.421 141.404L157.064 141.046L155.923 140.975L156.493 139.688L156.279 139.188L157.776 137.901L158.203 138.044L159.129 137.758L159.2 138.759L158.986 139.188L159.271 139.617L160.41 139.402L160.839 137.973L161.409 137.4L160.909 136.9H159.271L158.773 135.828L158.986 134.755L158.132 134.255L158.702 132.468L158.274 132.11L159.058 131.038L157.42 129.966L156.921 130.609L155.994 129.537L156.708 128.965L156.993 129.394L157.562 128.965L156.637 127.607L157.135 127.178L157.562 127.535L157.918 127.249L157.705 126.963L158.061 126.677L160.626 127.678L161.409 127.035L162.691 127.535L160.982 129.179L161.338 130.752L160.41 130.895L160.767 131.967L159.841 132.039L159.983 133.612L160.626 133.683L161.338 136.4L162.477 136.829L163.83 135.971H165.612L168.104 134.184L169.885 132.897L170.455 132.825L169.387 128.679L170.384 128.321H170.882L170.597 127.106L172.805 126.534L173.232 126.892L173.303 127.607L172.378 127.535V128.465L172.805 128.75L172.662 129.394L172.449 129.465L172.093 129.68L172.164 132.039L171.95 132.539L173.661 132.396L178.433 134.255H180.356L181.068 134.327L182.137 134.47L187.408 139.188L191.682 143.12L192.038 144.264L192.251 149.268V153.485L195.315 152.771L195.528 154.057L193.889 154.415L194.245 156.13L197.095 155.917L197.593 155.201L199.731 156.344L198.092 157.203L198.02 158.133L195.457 158.347L194.316 159.633L193.248 158.705L192.892 158.99L193.818 159.92L193.391 160.278L193.747 160.563L193.391 162.278L191.397 160.705L191.895 162.565L192.038 164.852L191.468 165.424L189.615 167.783L186.411 171L181.281 174.718L179.572 175.29L174.658 174.718L175.298 176.362L174.159 176.863L173.732 179.722L173.446 181.652L173.874 181.867L174.729 182.868L175.085 184.368L174.017 184.94L173.518 184.584L172.876 184.154L173.232 181.938L172.449 181.509L172.164 182.367L171.309 182.724L172.021 183.367L170.241 183.796L170.74 182.51L169.885 181.509L169.243 181.366L168.673 180.579L167.036 180.294L166.181 180.866L165.967 179.58L168.602 178.792L169.814 177.219L171.096 177.72L171.737 176.576L171.381 175.575L170.526 175.003V174.36L171.594 174.218L171.096 173.288L168.531 172.001L163.26 163.994L161.836 163.923L161.907 166.782L161.409 167.712L159.77 167.569L158.915 168.57L157.206 166.997L156.637 167.498L155.781 166.497L155.923 165.424L157.064 164.209L156.708 163.923L156.993 162.278L158.844 162.421Z" fill="#0B2D62"/>
<path d="M196.454 161.706L198.092 159.777L200.728 160.491L200.656 162.064L200.941 162.636L197.522 162.136L197.237 162.494L196.454 161.706Z" fill="#0B2D62"/>
<path d="M192.322 144.763L193.106 145.693L193.533 145.479L193.675 145.836H194.031L195.101 144.407L195.813 144.907L196.311 144.549L196.169 144.049L194.174 143.835L194.602 143.191L193.96 143.334L193.889 143.906L192.322 144.763Z" fill="#0B2D62"/>
<path d="M148.374 169.785L147.66 170.714L147.945 171.358L146.663 170.714L145.738 171.572L145.453 171.358L146.735 169.57L147.447 168.998L147.518 168.713L147.945 169.285L148.374 169.785Z" fill="#0B2D62"/>
<path d="M149.94 171.501L150.083 169.857L150.866 169.285L152.505 169.785L153.716 169.142L154.784 169.999L154.072 170.858L154.641 171.786L151.293 173.288L150.012 173.931L149.228 172.502L149.94 171.501Z" fill="#0B2D62"/>
<path d="M158.63 145.335L158.915 144.692L159.414 144.979L159.342 145.193L158.986 146.051H158.773L158.63 145.335Z" fill="#0B2D62"/>
<path d="M151.008 125.176L151.222 122.745H150.368L150.937 122.102L145.951 118.599L144.027 119.743L143.173 118.67L141.606 119.028L143.458 122.102L142.461 122.745L143.03 125.033L142.603 126.105L145.453 126.32L147.803 128.036L147.233 125.033L148.16 123.603L150.012 124.175L150.225 125.319L151.008 125.176Z" fill="#0B2D62"/>
<path d="M157.918 125.605L159.699 124.104L160.268 123.174L161.409 123.246L161.978 121.959L162.762 122.173V122.602L162.477 123.103L164.399 123.46L164.613 123.889H165.398L165.469 124.461L164.756 124.389L164.542 124.89L164.043 124.962L161.694 126.534L161.48 125.605L157.99 126.391L157.705 125.962L157.918 125.605Z" fill="#0B2D62"/>
<path d="M188.262 121.03L188.191 120.958L188.547 120.529L188.405 120.243L188.903 119.957L188.974 120.386L188.832 120.672L188.689 120.601L188.547 120.744L188.689 120.815L188.262 121.03Z" fill="#0B2D62"/>
<path d="M158.844 162.421V161.135L159.983 162.35L160.909 161.135L161.338 161.849L161.907 161.421L161.338 159.848L159.77 157.775L158.417 153.343L158.488 148.052L156.708 150.339L156.208 149.983L155.709 150.555L154.997 150.197L155.709 149.84L157.064 147.98L156.85 146.979L156.993 146.837L158.63 147.838L159.699 145.98L159.841 145.264L160.339 142.691L159.058 142.548L157.918 143.691L157.491 142.762V143.62L156.85 142.977L156.708 141.904L156.421 141.404L157.064 141.046L155.923 140.975L156.493 139.688L156.279 139.188L157.776 137.901L158.203 138.044L159.129 137.758L159.2 138.759L158.986 139.188L159.271 139.617L160.41 139.402L160.839 137.973L161.409 137.4L160.909 136.9H159.271L158.773 135.828L158.986 134.755L158.132 134.255L158.702 132.468L158.274 132.11L159.058 131.038L157.42 129.966L156.921 130.609L155.994 129.537L156.708 128.965L156.993 129.394L157.562 128.965L156.637 127.607L157.135 127.178L157.562 127.535L157.918 127.249L157.705 126.963L158.061 126.677L160.626 127.678L161.409 127.035L162.691 127.535L160.982 129.179L161.338 130.752L160.41 130.895L160.767 131.967L159.841 132.039L159.983 133.612L160.626 133.683L161.338 136.4L162.477 136.829L163.83 135.971H165.612L168.104 134.184L169.885 132.897L170.455 132.825L169.387 128.679L170.384 128.321H170.882L170.597 127.106L172.805 126.534L173.232 126.892L173.303 127.607L172.378 127.535V128.465L172.805 128.75L172.662 129.394L172.449 129.465L172.093 129.68L172.164 132.039L171.95 132.539L173.661 132.396L178.433 134.255H180.356L181.068 134.327L182.137 134.47L187.408 139.188L191.682 143.12L192.038 144.264L192.251 149.268V153.485L195.315 152.771L195.528 154.057L193.889 154.415L194.245 156.13L197.095 155.917L197.593 155.201L199.731 156.344L198.092 157.203L198.02 158.133L195.457 158.347L194.316 159.633L193.248 158.705L192.892 158.99L193.818 159.92L193.391 160.278L193.747 160.563L193.391 162.278L191.397 160.705L191.895 162.565L192.038 164.852L191.468 165.424L189.615 167.783L186.411 171L181.281 174.718L179.572 175.29L174.658 174.718L175.298 176.362L174.159 176.863L173.732 179.722L173.446 181.652L173.874 181.867L174.729 182.868L175.085 184.368L174.017 184.94L173.518 184.584L172.876 184.154L173.232 181.938L172.449 181.509L172.164 182.367L171.309 182.724L172.021 183.367L170.241 183.796L170.74 182.51L169.885 181.509L169.243 181.366L168.673 180.579L167.036 180.294L166.181 180.866L165.967 179.58L168.602 178.792L169.814 177.219L171.096 177.72L171.737 176.576L171.381 175.575L170.526 175.003V174.36L171.594 174.218L171.096 173.288L168.531 172.001L163.26 163.994L161.836 163.923L161.907 166.782L161.409 167.712L159.77 167.569L158.915 168.57L157.206 166.997L156.637 167.498L155.781 166.497L155.923 165.424L157.064 164.209L156.708 163.923L156.993 162.278L158.844 162.421Z" stroke="white" stroke-opacity="0.21" stroke-width="2" stroke-linejoin="round"/>
<path d="M196.454 161.706L198.092 159.777L200.728 160.491L200.656 162.064L200.941 162.636L197.522 162.136L197.237 162.494L196.454 161.706Z" stroke="white" stroke-opacity="0.21" stroke-width="2" stroke-linejoin="round"/>
<path d="M192.322 144.763L193.106 145.693L193.533 145.479L193.675 145.836H194.031L195.101 144.407L195.813 144.907L196.311 144.549L196.169 144.049L194.174 143.835L194.602 143.191L193.96 143.334L193.889 143.906L192.322 144.763Z" stroke="white" stroke-opacity="0.21" stroke-width="2" stroke-linejoin="round"/>
<path d="M148.374 169.785L147.66 170.714L147.945 171.358L146.663 170.714L145.738 171.572L145.453 171.358L146.735 169.57L147.447 168.998L147.518 168.713L147.945 169.285L148.374 169.785Z" stroke="white" stroke-opacity="0.21" stroke-width="2" stroke-linejoin="round"/>
<path d="M149.94 171.501L150.083 169.857L150.866 169.285L152.505 169.785L153.716 169.142L154.784 169.999L154.072 170.858L154.641 171.786L151.293 173.288L150.012 173.931L149.228 172.502L149.94 171.501Z" stroke="white" stroke-opacity="0.21" stroke-width="2" stroke-linejoin="round"/>
<path d="M158.63 145.335L158.915 144.692L159.414 144.979L159.342 145.193L158.986 146.051H158.773L158.63 145.335Z" stroke="white" stroke-opacity="0.21" stroke-width="2" stroke-linejoin="round"/>
<path d="M151.008 125.176L151.222 122.745H150.368L150.937 122.102L145.951 118.599L144.027 119.743L143.173 118.67L141.606 119.028L143.458 122.102L142.461 122.745L143.03 125.033L142.603 126.105L145.453 126.32L147.803 128.036L147.233 125.033L148.16 123.603L150.012 124.175L150.225 125.319L151.008 125.176Z" stroke="white" stroke-opacity="0.21" stroke-width="2" stroke-linejoin="round"/>
<path d="M157.918 125.605L159.699 124.104L160.268 123.174L161.409 123.246L161.978 121.959L162.762 122.173V122.602L162.477 123.103L164.399 123.46L164.613 123.889H165.398L165.469 124.461L164.756 124.389L164.542 124.89L164.043 124.962L161.694 126.534L161.48 125.605L157.99 126.391L157.705 125.962L157.918 125.605Z" stroke="white" stroke-opacity="0.21" stroke-width="2" stroke-linejoin="round"/>
<path d="M188.262 121.03L188.191 120.958L188.547 120.529L188.405 120.243L188.903 119.957L188.974 120.386L188.832 120.672L188.689 120.601L188.547 120.744L188.689 120.815L188.262 121.03Z" stroke="white" stroke-opacity="0.21" stroke-width="2" stroke-linejoin="round"/>
</g>
<defs>
<clipPath id="clip0_89_969">
<rect width="360" height="341" fill="white"/>
</clipPath>
</defs>
</svg>
