<svg width="171" height="42" viewBox="0 0 171 42" fill="none" xmlns="http://www.w3.org/2000/svg">
<g clip-path="url(#clip0_39_301)">
<path d="M77.3922 25.932L81.5713 23.6848V35.8482L74.0984 39.9859L63.6858 34.2431L69.2463 31.1041L66.0233 29.2493L63.4378 27.7512L62.8004 27.3945C62.3753 27.1448 61.9503 26.8951 61.4899 26.6454L59.9316 25.718L59.2941 25.3613C58.6566 24.969 57.9836 24.6122 57.3462 24.2199L56.2482 23.5778L47.7127 28.3576C47.3939 28.5359 47.0044 28.6429 46.6148 28.6429C46.2252 28.6429 45.871 28.5359 45.5169 28.3576L39.2834 24.8619V16.6936L45.5523 13.1979C45.871 13.0196 46.2606 12.9126 46.6502 12.9126C47.0398 12.9126 47.3939 13.0196 47.7127 13.1979L71.0171 25.932C72.0088 26.467 73.1067 26.7524 74.24 26.7524C75.338 26.7168 76.4359 26.467 77.3922 25.932Z" fill="url(#paint0_linear_39_301)"/>
<path d="M29.1898 34.0287L18.8127 39.7715L11.1272 35.5268V27.2158H26.0732V28.5713C26.0732 30.8185 27.2773 32.8873 29.1898 34.0287Z" fill="url(#paint1_linear_39_301)"/>
<path d="M26.0732 14.3038H11.1272V5.99274L18.8127 1.74805L29.1898 7.49086C27.2773 8.66797 26.0732 10.7368 26.0732 12.9483V14.3038Z" fill="url(#paint2_linear_39_301)"/>
<path d="M73.2131 12.2703L63.863 7.16951L74.0632 1.53369L84.4403 7.27652L75.3736 12.2703C75.0548 12.4486 74.6653 12.5556 74.3111 12.5556C73.9215 12.5556 73.5673 12.4486 73.2131 12.2703Z" fill="url(#paint3_linear_39_301)"/>
<path d="M92.5506 5.24337V28.5357C92.5506 30.0695 91.8069 31.2109 90.4611 31.96L83.7676 35.741V20.082L76.3654 24.077C75.055 24.7903 73.4258 24.7903 72.1153 24.077C64.359 19.8323 56.5673 15.5876 48.8109 11.3429C47.4651 10.5938 45.8359 10.6295 44.4901 11.3786L37.1234 15.4806V26.0745L44.4547 30.1765C45.8005 30.9256 47.4651 30.9256 48.8109 30.1765L56.2485 26.0032C56.8861 26.3598 57.5236 26.7522 58.1965 27.1446L51.1131 31.0683L52.8839 32.067L59.9319 28.179C60.534 28.5357 61.1007 28.8567 61.7028 29.2135L54.7256 33.1014L56.4964 34.1002L63.4382 30.1765C63.934 30.4618 64.4299 30.7472 64.9257 31.0683L61.4902 32.9944L48.8464 40.0927C47.5005 40.8418 45.8359 40.8418 44.4901 40.0927L31.3858 32.8161L30.465 32.3167C29.1192 31.5676 28.2691 30.1409 28.2691 28.607V25.1114H8.93142V35.8124L2.73346 32.3167C1.38761 31.5676 0.537598 30.1409 0.537598 28.607V12.948C0.537598 11.4142 1.38761 10.0231 2.73346 9.23835L8.93142 5.74275V16.4436H28.2691V12.948C28.2691 11.4142 29.1192 9.98744 30.465 9.23835L31.3858 8.70334L44.4547 1.39104C45.8005 0.641981 47.4297 0.641981 48.7756 1.35538C53.061 3.70957 57.3465 6.02811 61.6319 8.38231L72.1153 14.1251C73.4612 14.8742 75.0904 14.8385 76.4008 14.1251L86.6363 8.48932L92.5506 5.24337Z" fill="url(#paint4_linear_39_301)"/>
<path d="M109.232 20.724V1.60498H114.864V8.88162H120.141V1.60498H125.772V20.724H120.141V13.59H114.864V20.724H109.232Z" fill="white"/>
<path d="M137.14 21.3303C134.025 21.3303 131.51 20.3672 129.561 18.4767C127.613 16.5862 126.622 14.125 126.622 11.1644C126.622 8.20382 127.613 5.77828 129.561 3.85211C131.51 1.96162 134.06 0.998535 137.14 0.998535C140.116 0.998535 142.488 1.71193 144.295 3.10305C146.101 4.49417 147.129 6.45601 147.376 8.95287H141.426C141.214 8.06114 140.753 7.34775 140.01 6.84837C139.266 6.31333 138.345 6.06364 137.176 6.06364C135.724 6.06364 134.556 6.52735 133.741 7.41908C132.926 8.3465 132.501 9.55925 132.501 11.1644C132.501 12.7695 132.926 13.9823 133.741 14.9097C134.556 15.8371 135.724 16.2652 137.176 16.2652C138.309 16.2652 139.266 16.0155 140.01 15.4805C140.753 14.9454 141.214 14.2677 141.426 13.3759H147.376C147.129 15.8728 146.137 17.8346 144.295 19.2258C142.488 20.6169 140.116 21.3303 137.14 21.3303Z" fill="white"/>
<path d="M148.085 20.724V1.60498H155.239L159.276 14.0894L163.278 1.60498H170.292V20.724H164.873V8.59625L161.402 20.724H157.223L153.504 8.56057V20.724H148.085Z" fill="white"/>
<path d="M117.343 25.7891V29.8554H113.695V37.2034H109.232V25.7891H117.343Z" fill="white"/>
<path d="M126.622 25.4683C128.11 25.4683 129.314 26.0389 130.27 27.1448C131.226 28.2505 131.687 29.713 131.687 31.5321C131.687 33.3156 131.191 34.7781 130.235 35.8838C129.279 36.9896 128.039 37.5603 126.551 37.5603C125.702 37.5603 124.958 37.3819 124.32 36.9896C123.682 36.5972 123.258 36.1335 122.974 35.5628V41.6266H118.512V25.7893H122.974V27.5014C123.222 26.9307 123.682 26.4314 124.32 26.0389C124.993 25.6466 125.737 25.4683 126.622 25.4683ZM123.399 33.2442C123.789 33.708 124.32 33.922 124.922 33.922C125.56 33.922 126.055 33.708 126.445 33.2442C126.835 32.7806 127.047 32.2099 127.047 31.4964C127.047 30.783 126.835 30.2123 126.445 29.7486C126.055 29.3206 125.524 29.0709 124.922 29.0709C124.285 29.0709 123.789 29.2849 123.399 29.7486C123.009 30.1766 122.797 30.783 122.797 31.4964C122.797 32.2099 123.009 32.8163 123.399 33.2442Z" fill="white"/>
<path d="M139.904 25.7891H144.366V36.4186C144.366 38.2735 143.799 39.6646 142.666 40.6277C141.604 41.4838 140.116 41.9117 138.204 41.9117C136.185 41.9117 134.662 41.5194 133.705 40.7347C133.281 40.3779 132.891 39.9143 132.608 39.3792C132.325 38.8442 132.183 38.2735 132.183 37.7027H136.645C136.68 38.4875 137.212 38.8799 138.204 38.8799C139.337 38.8799 139.904 38.2735 139.904 37.0606V34.9562C139.266 36.2402 138.097 36.918 136.362 36.918C133.564 36.918 132.183 35.3128 132.183 32.0669V25.7891H136.645V31.5319C136.645 32.8516 137.176 33.5294 138.204 33.5294C139.337 33.5294 139.904 32.7446 139.904 31.1752V25.7891Z" fill="white"/>
<path d="M157.47 37.2034H153.008V29.3204H149.749V37.2034H145.287V25.7891H157.47V37.2034Z" fill="white"/>
<path d="M170.539 37.2034H166.077V29.3204H162.818V37.2034H158.356V25.7891H170.539V37.2034Z" fill="white"/>
</g>
<defs>
<linearGradient id="paint0_linear_39_301" x1="60.4424" y1="12.9188" x2="60.4424" y2="39.9993" gradientUnits="userSpaceOnUse">
<stop stop-color="#F9B54E"/>
<stop offset="1" stop-color="#F4B564"/>
</linearGradient>
<linearGradient id="paint1_linear_39_301" x1="20.1524" y1="27.2229" x2="20.1524" y2="39.7854" gradientUnits="userSpaceOnUse">
<stop stop-color="#F9B54E"/>
<stop offset="1" stop-color="#F4B564"/>
</linearGradient>
<linearGradient id="paint2_linear_39_301" x1="20.1606" y1="1.73773" x2="20.1606" y2="14.3169" gradientUnits="userSpaceOnUse">
<stop stop-color="#F9B54E"/>
<stop offset="1" stop-color="#F4B564"/>
</linearGradient>
<linearGradient id="paint3_linear_39_301" x1="74.1706" y1="1.52381" x2="74.1706" y2="12.5441" gradientUnits="userSpaceOnUse">
<stop stop-color="#F9B54E"/>
<stop offset="1" stop-color="#F4B564"/>
</linearGradient>
<linearGradient id="paint4_linear_39_301" x1="46.5399" y1="40.687" x2="46.5399" y2="0.834171" gradientUnits="userSpaceOnUse">
<stop stop-color="#F77811"/>
<stop offset="1" stop-color="#F7BE50"/>
</linearGradient>
<clipPath id="clip0_39_301">
<rect width="170.625" height="42" fill="white"/>
</clipPath>
</defs>
</svg>
