<svg width="171" height="42" viewBox="0 0 171 42" fill="none" xmlns="http://www.w3.org/2000/svg">
<g clip-path="url(#clip0_3_221)">
<path d="M77.3922 25.9319L81.5713 23.6847V35.8481L74.0984 39.9858L63.6858 34.243L69.2463 31.104L66.0233 29.2492L63.4378 27.7511L62.8004 27.3943C62.3753 27.1447 61.9503 26.895 61.4899 26.6452L59.9316 25.7178L59.2941 25.3612C58.6566 24.9688 57.9836 24.6121 57.3462 24.2197L56.2482 23.5777L47.7127 28.3574C47.3939 28.5358 47.0044 28.6428 46.6148 28.6428C46.2252 28.6428 45.871 28.5358 45.5169 28.3574L39.2834 24.8618V16.6934L45.5523 13.1978C45.871 13.0195 46.2606 12.9125 46.6502 12.9125C47.0398 12.9125 47.3939 13.0195 47.7127 13.1978L71.0171 25.9319C72.0088 26.4669 73.1067 26.7523 74.24 26.7523C75.338 26.7166 76.4359 26.4669 77.3922 25.9319Z" fill="url(#paint0_linear_3_221)"/>
<path d="M29.1898 34.0289L18.8127 39.7717L11.1272 35.527V27.2159H26.0732V28.5714C26.0732 30.8186 27.2773 32.8874 29.1898 34.0289Z" fill="url(#paint1_linear_3_221)"/>
<path d="M26.0732 14.3035H11.1272V5.9925L18.8127 1.7478L29.1898 7.49062C27.2773 8.66772 26.0732 10.7366 26.0732 12.9481V14.3035Z" fill="url(#paint2_linear_3_221)"/>
<path d="M73.2131 12.2704L63.863 7.16964L74.0632 1.53381L84.4403 7.27664L75.3736 12.2704C75.0548 12.4487 74.6653 12.5557 74.3111 12.5557C73.9215 12.5557 73.5673 12.4487 73.2131 12.2704Z" fill="url(#paint3_linear_3_221)"/>
<path d="M92.5506 5.24349V28.5358C92.5506 30.0696 91.8069 31.211 90.4611 31.9601L83.7676 35.7411V20.0821L76.3654 24.0771C75.055 24.7905 73.4258 24.7905 72.1153 24.0771C64.359 19.8324 56.5673 15.5877 48.8109 11.343C47.4651 10.5939 45.8359 10.6296 44.4901 11.3787L37.1234 15.4807V26.0746L44.4547 30.1766C45.8005 30.9257 47.4651 30.9257 48.8109 30.1766L56.2485 26.0033C56.8861 26.3599 57.5236 26.7523 58.1965 27.1447L51.1131 31.0684L52.8839 32.0671L59.9319 28.1792C60.534 28.5358 61.1007 28.8568 61.7028 29.2136L54.7256 33.1016L56.4964 34.1003L63.4382 30.1766C63.934 30.4619 64.4299 30.7474 64.9257 31.0684L61.4902 32.9945L48.8464 40.0928C47.5005 40.8419 45.8359 40.8419 44.4901 40.0928L31.3858 32.8162L30.465 32.3168C29.1192 31.5678 28.2691 30.141 28.2691 28.6071V25.1115H8.93142V35.8125L2.73346 32.3168C1.38761 31.5678 0.537598 30.141 0.537598 28.6071V12.9481C0.537598 11.4143 1.38761 10.0233 2.73346 9.23847L8.93142 5.74287V16.4437H28.2691V12.9481C28.2691 11.4143 29.1192 9.98756 30.465 9.23847L31.3858 8.70346L44.4547 1.39117C45.8005 0.642104 47.4297 0.642103 48.7756 1.3555C53.061 3.7097 57.3465 6.02823 61.6319 8.38243L72.1153 14.1253C73.4612 14.8743 75.0904 14.8386 76.4008 14.1253L86.6363 8.48944L92.5506 5.24349Z" fill="url(#paint4_linear_3_221)"/>
<path d="M109.232 20.7241V1.6051H114.864V8.88174H120.141V1.6051H125.772V20.7241H120.141V13.5901H114.864V20.7241H109.232Z" fill="#0F2950"/>
<path d="M137.14 21.3305C134.025 21.3305 131.51 20.3674 129.561 18.477C127.613 16.5864 126.622 14.1252 126.622 11.1647C126.622 8.20406 127.613 5.77852 129.561 3.85236C131.51 1.96187 134.06 0.998779 137.14 0.998779C140.116 0.998779 142.488 1.71218 144.295 3.10329C146.101 4.49441 147.129 6.45625 147.376 8.95312H141.426C141.214 8.06139 140.753 7.34799 140.01 6.84862C139.266 6.31357 138.345 6.06388 137.176 6.06388C135.724 6.06388 134.556 6.52759 133.741 7.41933C132.926 8.34674 132.501 9.55949 132.501 11.1647C132.501 12.7698 132.926 13.9825 133.741 14.9099C134.556 15.8374 135.724 16.2654 137.176 16.2654C138.309 16.2654 139.266 16.0158 140.01 15.4807C140.753 14.9456 141.214 14.268 141.426 13.3762H147.376C147.129 15.8731 146.137 17.8349 144.295 19.2261C142.488 20.6171 140.116 21.3305 137.14 21.3305Z" fill="#0F2950"/>
<path d="M148.085 20.7241V1.6051H155.239L159.276 14.0895L163.278 1.6051H170.292V20.7241H164.873V8.59637L161.402 20.7241H157.223L153.504 8.5607V20.7241H148.085Z" fill="#0F2950"/>
<path d="M117.343 25.7892V29.8555H113.695V37.2035H109.232V25.7892H117.343Z" fill="#0F2950"/>
<path d="M126.622 25.4681C128.11 25.4681 129.314 26.0388 130.27 27.1446C131.226 28.2504 131.687 29.7129 131.687 31.532C131.687 33.3155 131.191 34.778 130.235 35.8837C129.279 36.9894 128.039 37.5602 126.551 37.5602C125.702 37.5602 124.958 37.3818 124.32 36.9894C123.682 36.5971 123.258 36.1333 122.974 35.5627V41.6265H118.512V25.7892H122.974V27.5013C123.222 26.9306 123.682 26.4313 124.32 26.0388C124.993 25.6465 125.737 25.4681 126.622 25.4681ZM123.399 33.2441C123.789 33.7078 124.32 33.9219 124.922 33.9219C125.56 33.9219 126.055 33.7078 126.445 33.2441C126.835 32.7804 127.047 32.2098 127.047 31.4963C127.047 30.7829 126.835 30.2122 126.445 29.7485C126.055 29.3205 125.524 29.0708 124.922 29.0708C124.285 29.0708 123.789 29.2848 123.399 29.7485C123.009 30.1765 122.797 30.7829 122.797 31.4963C122.797 32.2098 123.009 32.8161 123.399 33.2441Z" fill="#0F2950"/>
<path d="M139.904 25.7892H144.366V36.4188C144.366 38.2736 143.799 39.6647 142.666 40.6278C141.604 41.4839 140.116 41.9118 138.204 41.9118C136.185 41.9118 134.662 41.5195 133.705 40.7348C133.281 40.3781 132.891 39.9144 132.608 39.3793C132.325 38.8443 132.183 38.2736 132.183 37.7028H136.645C136.68 38.4876 137.212 38.88 138.204 38.88C139.337 38.88 139.904 38.2736 139.904 37.0608V34.9563C139.266 36.2404 138.097 36.9181 136.362 36.9181C133.564 36.9181 132.183 35.3129 132.183 32.067V25.7892H136.645V31.532C136.645 32.8517 137.176 33.5295 138.204 33.5295C139.337 33.5295 139.904 32.7447 139.904 31.1753V25.7892Z" fill="#0F2950"/>
<path d="M157.47 37.2035H153.008V29.3205H149.749V37.2035H145.287V25.7892H157.47V37.2035Z" fill="#0F2950"/>
<path d="M170.539 37.2035H166.077V29.3205H162.818V37.2035H158.356V25.7892H170.539V37.2035Z" fill="#0F2950"/>
</g>
<defs>
<linearGradient id="paint0_linear_3_221" x1="60.4424" y1="12.9187" x2="60.4424" y2="39.9991" gradientUnits="userSpaceOnUse">
<stop stop-color="#F9B54E"/>
<stop offset="1" stop-color="#F4B564"/>
</linearGradient>
<linearGradient id="paint1_linear_3_221" x1="20.1524" y1="27.223" x2="20.1524" y2="39.7855" gradientUnits="userSpaceOnUse">
<stop stop-color="#F9B54E"/>
<stop offset="1" stop-color="#F4B564"/>
</linearGradient>
<linearGradient id="paint2_linear_3_221" x1="20.1606" y1="1.73749" x2="20.1606" y2="14.3166" gradientUnits="userSpaceOnUse">
<stop stop-color="#F9B54E"/>
<stop offset="1" stop-color="#F4B564"/>
</linearGradient>
<linearGradient id="paint3_linear_3_221" x1="74.1706" y1="1.52393" x2="74.1706" y2="12.5442" gradientUnits="userSpaceOnUse">
<stop stop-color="#F9B54E"/>
<stop offset="1" stop-color="#F4B564"/>
</linearGradient>
<linearGradient id="paint4_linear_3_221" x1="46.5399" y1="40.6871" x2="46.5399" y2="0.834293" gradientUnits="userSpaceOnUse">
<stop stop-color="#F77811"/>
<stop offset="1" stop-color="#F7BE50"/>
</linearGradient>
<clipPath id="clip0_3_221">
<rect width="170.625" height="42" fill="white"/>
</clipPath>
</defs>
</svg>
